<svg width="769" height="556" viewBox="0 0 769 556" fill="none" xmlns="http://www.w3.org/2000/svg">
<g opacity="0.85" clip-path="url(#clip0_21_399)">
<path d="M629.584 6.39279C629.569 6.44439 629.554 6.48972 629.539 6.54132C629.504 6.64026 629.476 6.74142 629.454 6.84411C629.27 7.50282 629.169 8.18221 629.154 8.86619C629.145 9.15801 629.153 9.4501 629.176 9.7411C629.204 10.1145 629.258 10.4855 629.336 10.8516C629.419 11.2591 629.534 11.6595 629.679 12.049C629.745 12.2341 629.82 12.4157 629.904 12.5933C630.444 13.8047 631.258 14.8744 632.282 15.718C633.306 16.5616 634.511 17.1563 635.804 17.4553L635.81 17.4548C635.937 17.4876 636.065 17.5136 636.195 17.5328C636.915 17.6638 637.649 17.7013 638.379 17.6444L638.391 17.6435C640.171 17.5085 641.864 16.8174 643.23 15.6678C644.066 14.9736 644.158 14.2404 645.202 14.5657C648.534 15.6034 650.76 10.1131 649.094 7.10568C649.096 6.99233 649.092 6.87894 649.081 6.76608C648.922 4.66548 645.759 4.12998 643.915 3.01503L643.906 3.0522C643.82 3.37797 643.634 3.66867 643.375 3.88368C643.115 4.09868 642.795 4.22724 642.459 4.25135C642.123 4.27547 641.788 4.19394 641.5 4.01817C641.213 3.8424 640.987 3.58118 640.855 3.27104C640.518 2.45871 640.212 1.63527 639.937 0.800717C636.403 -1.74549 626.959 2.23287 629.584 6.39279Z" fill="#2F2E41"/>
<path d="M607.42 25.4553C606.938 26.5768 592.099 26.4567 591.42 27.4553C586.18 35.1653 605.069 67.9695 599.829 75.6896L599.099 76.5596C600.808 75.7717 602.451 74.8453 604.009 73.7896C604.149 70.6296 604.289 67.4596 604.439 64.2996C606.008 66.3074 607.275 68.5344 608.199 70.9096C609.419 70.0496 610.42 68.4553 615.649 65.3196C617.766 62.994 620.206 60.985 622.895 59.3544L607.42 25.4553Z" fill="#2F2E41"/>
<path d="M618.195 88.6431C616.558 87.5764 614.689 86.9156 612.745 86.7155C610.801 86.5154 608.838 86.7817 607.017 87.4925C605.197 88.2033 603.572 89.338 602.278 90.8025C600.983 92.2669 600.057 94.0189 599.576 95.913L577.026 154.669L538.264 132.664C538.094 130.134 537.127 127.724 535.502 125.778C533.878 123.832 531.678 122.451 529.22 121.832C526.761 121.213 524.17 121.389 521.818 122.334C519.465 123.279 517.473 124.945 516.125 127.093C514.778 129.24 514.146 131.759 514.319 134.289C514.492 136.818 515.462 139.227 517.089 141.171C518.716 143.115 520.917 144.494 523.376 145.11C525.835 145.726 528.426 145.547 530.778 144.599C538.94 153.311 574.329 189.031 588.979 175.074C601.294 163.343 619.065 117.878 623.343 102.178C624.028 99.6677 623.899 97.0045 622.974 94.5721C622.049 92.1397 620.376 90.0637 618.195 88.6431Z" fill="#A0616A"/>
<path d="M442.316 127.984C431.652 99.7092 429.144 70.8399 437.442 41.1829C437.346 39.4259 437.95 37.7024 439.122 36.3904C440.295 35.0783 441.94 34.285 443.697 34.1843L509.251 30.5036C511.008 30.4069 512.731 31.0111 514.043 32.1837C515.355 33.3562 516.149 35.0013 516.249 36.758L521.123 123.559C521.22 125.316 520.616 127.04 519.443 128.352C518.271 129.664 516.625 130.457 514.869 130.558L449.315 134.238C447.558 134.335 445.834 133.731 444.522 132.558C443.21 131.386 442.417 129.741 442.316 127.984Z" fill="#E6E6E6"/>
<path opacity="0.5" d="M445.872 101.484C438.482 87.8233 439.513 67.6066 442.739 45.6805C442.649 44.035 443.214 42.4208 444.313 41.1921C445.411 39.9633 446.951 39.2203 448.597 39.1261L504.935 35.9628C506.58 35.8722 508.194 36.438 509.423 37.5361C510.652 38.6343 511.395 40.175 511.489 41.8202L515.826 119.061C515.917 120.707 515.351 122.321 514.253 123.55C513.155 124.778 511.614 125.521 509.969 125.616L475.068 127.575C467.739 127.979 460.549 125.458 455.075 120.567C449.602 115.675 446.292 108.813 445.872 101.484Z" fill="white"/>
<path opacity="0.5" d="M474.256 111.985C477.462 111.985 480.061 109.386 480.061 106.181C480.061 102.975 477.462 100.376 474.256 100.376C471.05 100.376 468.452 102.975 468.452 106.181C468.452 109.386 471.05 111.985 474.256 111.985Z" fill="#BB9331"/>
<path opacity="0.5" d="M490.196 52.9526C488.425 50.0003 484.325 49.7364 480.883 49.8137C477.333 49.7374 473.788 50.1345 470.343 50.9945C466.944 52.0051 463.706 54.0732 462.065 57.2158C460.049 61.079 460.757 65.7619 461.84 69.9826C463.926 78.1015 467.199 85.8682 471.552 93.0316L474.07 94.7522C479.22 90.0539 483.379 84.3725 486.301 78.0427C489.222 71.7128 490.848 64.8624 491.082 57.8947C491.26 56.1967 490.952 54.4832 490.196 52.9526Z" fill="#BB9331"/>
<path d="M118.912 351.842C97.602 272.275 101.035 183.097 118.912 88.307C118.915 85.9599 119.848 83.7096 121.508 82.0499C123.168 80.3902 125.418 79.4566 127.765 79.4539H391.19C393.537 79.4566 395.787 80.3902 397.447 82.0499C399.107 83.7096 400.04 85.9599 400.043 88.307V351.841C400.04 354.189 399.107 356.439 397.447 358.099C395.787 359.758 393.537 360.692 391.19 360.695H127.765C125.418 360.692 123.168 359.758 121.508 358.099C119.848 356.439 118.915 354.189 118.912 351.842Z" fill="#F2F2F2"/>
<path opacity="0.5" d="M120.599 285.89C115.188 222.051 116.624 157.817 124.883 94.2833C124.886 91.9362 125.82 89.6859 127.479 88.0262C129.139 86.3665 131.389 85.4329 133.737 85.4302H385.217C386.379 85.4302 387.531 85.6592 388.605 86.1041C389.679 86.549 390.655 87.2011 391.477 88.0232C392.299 88.8453 392.951 89.8213 393.396 90.8954C393.841 91.9695 394.07 93.1207 394.07 94.2833V345.87C394.07 348.218 393.137 350.47 391.477 352.13C389.817 353.79 387.565 354.723 385.217 354.723H195.554C176.707 354.734 158.542 347.665 144.66 334.917C130.778 322.169 122.19 304.671 120.599 285.89Z" fill="white"/>
<path opacity="0.5" d="M281.618 135.112H175.741C175.441 135.112 175.143 135.054 174.866 134.939C174.588 134.825 174.336 134.657 174.123 134.445C173.911 134.233 173.742 133.981 173.627 133.703C173.512 133.426 173.453 133.129 173.453 132.828C173.453 132.528 173.512 132.231 173.627 131.954C173.742 131.676 173.911 131.424 174.123 131.212C174.336 131 174.588 130.832 174.866 130.718C175.143 130.603 175.441 130.545 175.741 130.545H281.618C282.222 130.546 282.802 130.788 283.229 131.216C283.656 131.644 283.896 132.224 283.896 132.828C283.896 133.433 283.656 134.013 283.229 134.441C282.802 134.869 282.222 135.11 281.618 135.112Z" fill="#BB9331"/>
<path d="M335.214 155.986H175.741C175.441 155.986 175.143 155.928 174.866 155.813C174.588 155.699 174.336 155.531 174.123 155.319C173.911 155.107 173.742 154.855 173.627 154.577C173.512 154.3 173.453 154.003 173.453 153.703C173.453 153.402 173.512 153.105 173.627 152.828C173.742 152.55 173.911 152.298 174.123 152.086C174.336 151.874 174.588 151.706 174.866 151.592C175.143 151.477 175.441 151.419 175.741 151.419H335.214C335.819 151.421 336.398 151.662 336.826 152.09C337.253 152.518 337.493 153.098 337.493 153.703C337.493 154.307 337.253 154.887 336.826 155.315C336.398 155.743 335.819 155.985 335.214 155.986Z" fill="#F2F2F2"/>
<path d="M335.217 172.29H175.737C175.131 172.29 174.55 172.531 174.122 172.959C173.693 173.388 173.452 173.969 173.452 174.575C173.452 175.181 173.693 175.762 174.122 176.191C174.55 176.619 175.131 176.86 175.737 176.86H335.217C335.823 176.86 336.405 176.619 336.833 176.191C337.262 175.762 337.502 175.181 337.502 174.575C337.502 173.969 337.262 173.388 336.833 172.959C336.405 172.531 335.823 172.29 335.217 172.29Z" fill="#F2F2F2"/>
<path d="M335.214 197.734H175.741C175.135 197.734 174.555 197.493 174.127 197.065C173.698 196.637 173.458 196.056 173.458 195.451C173.458 194.845 173.698 194.264 174.127 193.836C174.555 193.408 175.135 193.167 175.741 193.167H335.214C335.82 193.167 336.401 193.408 336.829 193.836C337.257 194.264 337.498 194.845 337.498 195.451C337.498 196.056 337.257 196.637 336.829 197.065C336.401 197.493 335.82 197.734 335.214 197.734Z" fill="#F2F2F2"/>
<path d="M335.214 218.608H175.741C175.441 218.609 175.143 218.55 174.866 218.436C174.588 218.321 174.336 218.153 174.123 217.941C173.911 217.729 173.742 217.477 173.627 217.2C173.512 216.922 173.453 216.625 173.453 216.325C173.453 216.025 173.512 215.727 173.627 215.45C173.742 215.173 173.911 214.921 174.123 214.709C174.336 214.497 174.588 214.329 174.866 214.214C175.143 214.1 175.441 214.041 175.741 214.042H335.214C335.819 214.043 336.398 214.284 336.826 214.712C337.253 215.14 337.493 215.72 337.493 216.325C337.493 216.93 337.253 217.51 336.826 217.938C336.398 218.366 335.819 218.607 335.214 218.608Z" fill="#F2F2F2"/>
<path d="M335.214 239.608H175.741C175.441 239.609 175.143 239.55 174.866 239.436C174.588 239.321 174.336 239.153 174.123 238.941C173.911 238.729 173.742 238.477 173.627 238.2C173.512 237.922 173.453 237.625 173.453 237.325C173.453 237.025 173.512 236.727 173.627 236.45C173.742 236.173 173.911 235.921 174.123 235.709C174.336 235.497 174.588 235.329 174.866 235.214C175.143 235.1 175.441 235.041 175.741 235.042H335.214C335.819 235.043 336.398 235.284 336.826 235.712C337.253 236.14 337.493 236.72 337.493 237.325C337.493 237.93 337.253 238.51 336.826 238.938C336.398 239.366 335.819 239.607 335.214 239.608Z" fill="#F2F2F2"/>
<path d="M335.214 260.608H175.741C175.441 260.609 175.143 260.55 174.866 260.436C174.588 260.321 174.336 260.153 174.123 259.941C173.911 259.729 173.742 259.477 173.627 259.2C173.512 258.922 173.453 258.625 173.453 258.325C173.453 258.025 173.512 257.727 173.627 257.45C173.742 257.173 173.911 256.921 174.123 256.709C174.336 256.497 174.588 256.329 174.866 256.214C175.143 256.1 175.441 256.041 175.741 256.042H335.214C335.819 256.043 336.398 256.284 336.826 256.712C337.253 257.14 337.493 257.72 337.493 258.325C337.493 258.93 337.253 259.51 336.826 259.938C336.398 260.366 335.819 260.607 335.214 260.608Z" fill="#F2F2F2"/>
<path d="M335.214 281.608H175.741C175.441 281.609 175.143 281.55 174.866 281.436C174.588 281.321 174.336 281.153 174.123 280.941C173.911 280.729 173.742 280.477 173.627 280.2C173.512 279.922 173.453 279.625 173.453 279.325C173.453 279.025 173.512 278.727 173.627 278.45C173.742 278.173 173.911 277.921 174.123 277.709C174.336 277.497 174.588 277.329 174.866 277.214C175.143 277.1 175.441 277.041 175.741 277.042H335.214C335.819 277.043 336.398 277.284 336.826 277.712C337.253 278.14 337.493 278.72 337.493 279.325C337.493 279.93 337.253 280.51 336.826 280.938C336.398 281.366 335.819 281.607 335.214 281.608Z" fill="#F2F2F2"/>
<path d="M335.214 302.608H175.741C175.441 302.609 175.143 302.55 174.866 302.436C174.588 302.321 174.336 302.153 174.123 301.941C173.911 301.729 173.742 301.477 173.627 301.2C173.512 300.922 173.453 300.625 173.453 300.325C173.453 300.025 173.512 299.727 173.627 299.45C173.742 299.173 173.911 298.921 174.123 298.709C174.336 298.496 174.588 298.328 174.866 298.214C175.143 298.099 175.441 298.041 175.741 298.042H335.214C335.819 298.043 336.398 298.284 336.826 298.712C337.253 299.14 337.493 299.72 337.493 300.325C337.493 300.929 337.253 301.509 336.826 301.938C336.398 302.366 335.819 302.607 335.214 302.608Z" fill="#F2F2F2"/>
<path opacity="0.5" d="M297.372 163.564C290.365 161.061 281.292 162.037 276.374 168.139C271.97 173.604 271.442 182.306 277.046 187.183C283.867 193.121 293.315 190.937 300.764 187.587C307.579 184.522 315.082 179.58 314.976 171.193C314.96 169.037 314.431 166.917 313.432 165.007C312.433 163.096 310.993 161.452 309.232 160.209C307.444 159.001 305.398 158.23 303.257 157.959C301.117 157.688 298.943 157.924 296.911 158.649C295.112 159.306 295.889 162.207 297.708 161.542C299.173 160.985 300.744 160.761 302.306 160.888C303.869 161.014 305.383 161.487 306.739 162.273C308.096 163.058 309.26 164.137 310.147 165.429C311.034 166.721 311.622 168.195 311.868 169.743C312.92 176.706 306.971 181.216 301.442 183.963C295.376 186.978 287.656 189.861 281.162 186.398C275.607 183.436 274.592 176.68 277.671 171.492C281.489 165.059 290.084 164.138 296.574 166.457C298.396 167.108 299.18 164.21 297.372 163.564H297.372Z" fill="#BB9331"/>
<path d="M203.372 205.564C196.365 203.061 187.292 204.037 182.374 210.139C177.97 215.604 177.442 224.306 183.046 229.183C189.867 235.121 199.315 232.937 206.764 229.587C213.579 226.522 221.082 221.58 220.976 213.193C220.96 211.037 220.431 208.917 219.432 207.007C218.433 205.096 216.993 203.452 215.232 202.209C213.444 201.001 211.398 200.23 209.257 199.959C207.117 199.688 204.943 199.924 202.911 200.649C201.112 201.306 201.889 204.207 203.708 203.542C205.173 202.985 206.744 202.761 208.306 202.888C209.869 203.014 211.383 203.487 212.739 204.273C214.096 205.058 215.26 206.137 216.147 207.429C217.034 208.721 217.622 210.195 217.868 211.743C218.92 218.706 212.971 223.216 207.442 225.963C201.376 228.978 193.656 231.861 187.162 228.398C181.607 225.436 180.592 218.68 183.671 213.492C187.489 207.059 196.084 206.138 202.574 208.457C204.396 209.108 205.18 206.21 203.372 205.564Z" fill="#E6E6E6"/>
<path d="M296.372 289.564C289.365 287.061 280.292 288.037 275.374 294.139C270.97 299.604 270.442 308.306 276.046 313.183C282.867 319.121 292.315 316.937 299.764 313.587C306.579 310.522 314.082 305.58 313.976 297.193C313.96 295.037 313.431 292.917 312.432 291.007C311.433 289.096 309.993 287.452 308.232 286.209C306.444 285.001 304.398 284.23 302.257 283.959C300.117 283.688 297.943 283.924 295.911 284.649C294.112 285.306 294.889 288.207 296.708 287.542C298.173 286.985 299.744 286.761 301.306 286.888C302.869 287.014 304.383 287.487 305.739 288.273C307.096 289.058 308.26 290.137 309.147 291.429C310.034 292.721 310.622 294.195 310.868 295.743C311.92 302.706 305.971 307.216 300.442 309.963C294.376 312.978 286.656 315.861 280.162 312.398C274.607 309.436 273.592 302.68 276.671 297.492C280.489 291.059 289.084 290.138 295.574 292.457C297.396 293.108 298.18 290.21 296.372 289.564H296.372Z" fill="#E6E6E6"/>
<path d="M292.979 317.943C295.246 332.526 302.112 346.002 312.576 356.409C320.565 364.213 330.346 369.94 341.062 373.086C351.779 376.232 363.103 376.703 374.043 374.456C375.913 374.065 375.67 371.073 373.781 371.467C360.422 374.234 346.535 372.805 334.02 367.375C324.024 362.94 315.302 356.066 308.653 347.383C302.005 338.7 297.643 328.487 295.967 317.681C295.677 315.779 292.687 316.03 292.979 317.943V317.943Z" fill="#E6E6E6"/>
<path d="M378.568 393.757L400.882 380.907C401.071 380.775 401.227 380.601 401.338 380.399C401.449 380.197 401.513 379.973 401.523 379.742C401.534 379.512 401.492 379.282 401.4 379.071C401.308 378.86 401.169 378.672 400.993 378.523L378.02 361.891C376.465 360.766 374.525 363.056 376.092 364.19C383.75 369.734 391.408 375.278 399.066 380.822L399.178 378.437L376.864 391.287C375.188 392.252 376.906 394.714 378.568 393.757Z" fill="#E6E6E6"/>
<path opacity="0.5" d="M311.979 157.137C314.246 142.554 321.112 129.078 331.576 118.671C339.565 110.867 349.346 105.14 360.062 101.994C370.779 98.8477 382.103 98.3773 393.043 100.624C394.913 101.015 394.67 104.007 392.781 103.613C379.422 100.846 365.535 102.275 353.02 107.705C343.024 112.14 334.302 119.014 327.653 127.697C321.005 136.38 316.643 146.593 314.967 157.399C314.677 159.301 311.687 159.05 311.979 157.137Z" fill="#BB9331"/>
<path opacity="0.5" d="M397.568 81.3228L419.882 94.1728C420.071 94.305 420.227 94.4787 420.338 94.6806C420.449 94.8825 420.513 95.1072 420.523 95.3375C420.534 95.5678 420.492 95.7974 420.4 96.0089C420.308 96.2203 420.169 96.4078 419.993 96.5571L397.02 113.189C395.465 114.314 393.525 112.024 395.092 110.89L418.066 94.2583L418.178 96.6426L395.864 83.7926C394.188 82.8276 395.906 80.3655 397.568 81.3227V81.3228Z" fill="#BB9331"/>
<path d="M192.976 237.943C190.709 252.525 183.843 266.002 173.379 276.409C165.39 284.213 155.609 289.94 144.892 293.086C134.176 296.232 122.852 296.703 111.911 294.456C110.042 294.065 110.285 291.073 112.174 291.467C125.532 294.234 139.42 292.804 151.935 287.375C161.931 282.94 170.653 276.066 177.301 267.383C183.95 258.7 188.312 248.487 189.987 237.68C190.277 235.778 193.268 236.03 192.976 237.943H192.976Z" fill="#E6E6E6"/>
<path d="M107.387 313.757L85.073 300.907C84.8841 300.775 84.7281 300.601 84.6169 300.399C84.5057 300.197 84.4423 299.973 84.4315 299.742C84.4207 299.512 84.4629 299.282 84.5547 299.071C84.6466 298.86 84.7857 298.672 84.9614 298.523L107.935 281.891C109.49 280.766 111.43 283.056 109.863 284.19L86.8889 300.822L86.7773 298.437L109.091 311.287C110.767 312.252 109.049 314.714 107.387 313.757Z" fill="#E6E6E6"/>
<path d="M14.6631 345.368C3.48229 326.13 -1.847 305.469 0.575089 282.923C0.29138 281.659 0.520709 280.334 1.21278 279.238C1.90486 278.143 3.00315 277.367 4.26671 277.08L51.4264 266.441C52.6906 266.157 54.0157 266.387 55.1111 267.079C56.2064 267.771 56.9824 268.869 57.269 270.133L71.357 332.577C71.6407 333.842 71.4114 335.167 70.7193 336.262C70.0273 337.357 68.929 338.133 67.6654 338.42L20.5057 349.059C19.2415 349.343 17.9164 349.114 16.8211 348.422C15.7257 347.73 14.9497 346.631 14.6631 345.368Z" fill="#F2F2F2"/>
<path opacity="0.5" d="M14.0254 325.691C6.99827 316.668 5.2899 301.861 4.96835 285.546C4.70262 284.362 4.91739 283.121 5.56555 282.095C6.2137 281.069 7.2423 280.342 8.42567 280.074L48.9554 270.93C50.1394 270.664 51.3804 270.879 52.4063 271.527C53.4321 272.175 54.159 273.204 54.4274 274.387L66.9638 329.955C67.2295 331.139 67.0147 332.38 66.3665 333.406C65.7183 334.431 64.6896 335.158 63.5062 335.427L38.3989 341.091C33.125 342.275 27.5971 341.318 23.0277 338.431C18.4584 335.544 15.2208 330.962 14.0254 325.691Z" fill="white"/>
<path d="M35.209 329.926C37.5695 329.926 39.483 328.013 39.483 325.652C39.483 323.292 37.5695 321.378 35.209 321.378C32.8485 321.378 30.935 323.292 30.935 325.652C30.935 328.013 32.8485 329.926 35.209 329.926Z" fill="#F2F2F2"/>
<path d="M40.3166 285.06C38.6716 283.131 35.6616 283.438 33.1714 283.912C30.584 284.288 28.0582 285.007 25.6608 286.05C24.4635 286.579 23.3828 287.339 22.4808 288.287C21.5788 289.235 20.8735 290.352 20.4054 291.574C19.4107 294.625 20.4939 297.94 21.7933 300.873C24.2948 306.516 27.6153 311.759 31.6475 316.432L33.6849 317.375C36.8545 313.337 39.1841 308.706 40.5367 303.754C41.8892 298.802 42.2374 293.63 41.5605 288.541C41.4832 287.286 41.0519 286.079 40.3166 285.06Z" fill="#F2F2F2"/>
<path d="M35.209 329.926C37.5695 329.926 39.483 328.013 39.483 325.652C39.483 323.292 37.5695 321.378 35.209 321.378C32.8485 321.378 30.935 323.292 30.935 325.652C30.935 328.013 32.8485 329.926 35.209 329.926Z" fill="#E6E6E6"/>
<path d="M40.3166 285.06C38.6716 283.131 35.6616 283.438 33.1714 283.912C30.584 284.288 28.0582 285.007 25.6608 286.05C24.4635 286.579 23.3828 287.339 22.4808 288.287C21.5788 289.235 20.8735 290.352 20.4054 291.574C19.4107 294.625 20.4939 297.94 21.7933 300.873C24.2948 306.516 27.6153 311.759 31.6475 316.432L33.6849 317.375C36.8545 313.337 39.1841 308.706 40.5367 303.754C41.8892 298.802 42.2374 293.63 41.5605 288.541C41.4832 287.286 41.0519 286.079 40.3166 285.06Z" fill="#E6E6E6"/>
<path d="M629.594 531.961L618.117 531.96L612.656 487.69H629.596L629.594 531.961Z" fill="#A0616A"/>
<path d="M594.952 548.895C594.957 550.181 595.47 551.413 596.378 552.323C597.286 553.233 598.517 553.748 599.803 553.756H621.409L622.078 552.369L625.134 546.062L626.318 552.369L626.58 553.756H634.73L634.613 552.359L632.44 526.299L629.597 526.125L617.315 525.397L614.297 525.213V532.994C612.008 535.429 594.04 544.636 594.952 548.895Z" fill="#2F2E41"/>
<path d="M584.775 523.056L573.944 526.854L554.141 486.885L570.127 481.28L584.775 523.056Z" fill="#A0616A"/>
<path d="M557.689 550.501C558.12 551.713 559.011 552.705 560.169 553.263C561.327 553.822 562.659 553.9 563.875 553.483L584.264 546.332L584.436 544.802L585.233 537.839L588.437 543.399L589.144 544.621L596.834 541.924L596.262 540.644L585.587 516.772L582.847 517.548L571.016 520.926L568.107 521.751L570.682 529.094C569.327 532.149 555.419 546.784 557.689 550.501Z" fill="#2F2E41"/>
<path d="M575.852 177.536L582.968 209.7L635.004 214.407L639.786 186.401L575.852 177.536Z" fill="#A0616A"/>
<path d="M638.478 200.135L579.922 199.157L578.663 216.251L533.445 352.176L525.41 385.595L548.44 509.68L587.44 509.655C587.44 509.655 586.631 477.055 585.075 475.704C583.518 474.353 580.269 475.725 582.678 468.763C585.087 461.802 586.865 459.553 584.015 456.755C581.164 453.957 577.718 456.304 579.834 449.639C581.949 442.974 599.208 351.973 599.208 351.973V515.124H639.334C639.334 515.124 647.735 507.45 643.868 503.453C640.001 499.457 636.863 498.672 640.001 493.181C643.139 487.69 649.948 489.073 644.19 482.106C639.616 476.57 650.559 323.914 655.251 261.398C656.518 244.502 651.125 227.782 640.223 214.812L638.478 200.135Z" fill="#2F2E41"/>
<path d="M608.329 73.0556L634.23 71.7213L646.26 90.7304C646.26 90.7304 668.895 94.5147 667.326 121.187C665.757 147.86 639.786 171.265 639.786 171.265L640.896 167.459L638.968 172.968L639.215 176.062L641.846 179.338L642.116 182.726L639.786 188.086L642.955 193.219L576.326 186.764L573.889 177.888L577.443 173.122L575.458 166.905L578.443 160.926L579.999 159.629C579.999 159.629 562.972 134.049 582.518 114.782L590.363 101.446L599.141 90.7365L608.329 73.0556Z" fill="#BB9331"/>
<path d="M614.776 61.8345C628.34 61.8345 639.337 50.8382 639.337 37.2736C639.337 23.7089 628.34 12.7126 614.776 12.7126C601.211 12.7126 590.215 23.7089 590.215 37.2736C590.215 50.8382 601.211 61.8345 614.776 61.8345Z" fill="#A0616A"/>
<path d="M633.43 72.6553C631.43 70.9841 630.038 68.6991 629.47 66.1553C629.016 69.2439 629.134 72.3897 629.82 75.4353C628.49 76.4353 627.2 77.3853 625.98 78.2453C625.056 75.8701 623.789 73.6432 622.22 71.6353C622.07 74.7953 621.93 77.9653 621.79 81.1253C620.231 82.1811 618.589 83.1075 616.88 83.8953L617.61 83.0253C622.85 75.3053 609.29 61.0953 614.53 53.3853C616 51.2253 609.36 34.1553 604.3 33.3853C599.8 32.7053 599.99 34.0053 595.63 34.9553C595.177 33.067 594.474 31.2476 593.54 29.5453C593.789 31.4422 593.731 33.3667 593.37 35.2453C591.82 35.3053 590.6 34.3177 588.95 34.0653C578.42 32.4553 579.49 21.0654 582.42 17.4553C585.36 13.8553 595.12 12.7753 599.62 11.6053C600.03 11.2053 600.96 11.4553 601.37 11.0753C609.994 3.18281 621.528 1.87575 631.907 5.37389C632.84 5.69559 633.746 6.08992 634.617 6.55324C643.427 11.1698 650.967 17.5241 650.42 27.4553C650.163 32.1068 649.108 32.8309 650.42 35.4553C650.742 36.0993 647.921 42.163 652.67 42.8092C657.42 43.4553 655.278 47.1222 656.42 48.4553C660.843 53.6199 644.991 68.6831 633.43 72.6553Z" fill="#2F2E41"/>
<path d="M411.051 414.26C405.898 392.614 406.757 371.294 415.582 350.406C415.675 349.114 416.278 347.912 417.256 347.063C418.235 346.214 419.51 345.787 420.803 345.878L469.027 349.299C470.319 349.393 471.522 349.995 472.371 350.973C473.22 351.952 473.646 353.228 473.555 354.52L469.025 418.374C468.931 419.666 468.329 420.869 467.351 421.718C466.372 422.567 465.096 422.993 463.804 422.903L415.58 419.481C414.288 419.388 413.085 418.786 412.236 417.807C411.387 416.828 410.961 415.553 411.051 414.26Z" fill="#F2F2F2"/>
<path opacity="0.5" d="M416.119 395.236C411.995 384.569 414.632 369.899 419.032 354.185C419.119 352.975 419.683 351.849 420.6 351.053C421.516 350.258 422.711 349.859 423.921 349.944L465.365 352.884C466.576 352.972 467.702 353.535 468.497 354.452C469.292 355.369 469.691 356.563 469.607 357.774L465.575 414.595C465.488 415.805 464.924 416.931 464.007 417.727C463.091 418.522 461.896 418.921 460.686 418.836L435.012 417.014C429.621 416.626 424.604 414.115 421.062 410.032C417.52 405.949 415.743 400.628 416.119 395.236Z" fill="white"/>
<path d="M436.413 405.586C438.773 405.586 440.687 403.673 440.687 401.312C440.687 398.952 438.773 397.038 436.413 397.038C434.052 397.038 432.139 398.952 432.139 401.312C432.139 403.673 434.052 405.586 436.413 405.586Z" fill="#F2F2F2"/>
<path d="M453.017 363.92C451.998 361.599 449.028 361.024 446.507 360.759C443.921 360.373 441.295 360.332 438.698 360.639C437.4 360.8 436.146 361.216 435.008 361.863C433.871 362.511 432.873 363.377 432.073 364.412C430.24 367.046 430.321 370.532 430.718 373.716C431.485 379.84 433.151 385.818 435.663 391.456L437.342 392.947C441.542 389.996 445.109 386.234 447.833 381.883C450.557 377.532 452.383 372.68 453.203 367.612C453.491 366.389 453.426 365.109 453.017 363.92Z" fill="#F2F2F2"/>
<path d="M669.242 189.019L668.275 113.712C668.225 110.521 666.922 107.478 664.648 105.24C662.374 103.002 659.311 101.747 656.12 101.747C654.469 101.747 652.836 102.083 651.32 102.735C649.803 103.387 648.435 104.341 647.299 105.539C646.164 106.737 645.284 108.153 644.713 109.702C644.143 111.251 643.893 112.9 643.981 114.548L647.384 192.743L647.448 240.344C645.443 241.195 643.748 242.642 642.593 244.489C641.439 246.336 640.882 248.494 640.996 250.67C641.111 252.845 641.893 254.932 643.235 256.648C644.578 258.363 646.415 259.624 648.499 260.258C650.583 260.893 652.812 260.871 654.882 260.195C656.953 259.519 658.765 258.221 660.073 256.479C661.381 254.738 662.121 252.635 662.192 250.458C662.264 248.281 661.663 246.135 660.472 244.311L669.242 189.019Z" fill="#A0616A"/>
<path d="M733.509 554.649H700.322L700.18 554.39C699.756 553.621 699.346 552.805 698.963 551.967C695.545 544.649 694.1 536.279 692.825 528.894L691.865 523.328C691.749 522.653 691.836 521.96 692.116 521.336C692.397 520.712 692.857 520.186 693.438 519.824C694.019 519.463 694.694 519.284 695.378 519.309C696.062 519.334 696.722 519.563 697.275 519.965C702.318 523.635 707.364 527.302 712.411 530.964C714.322 532.355 716.505 533.964 718.595 535.704C718.797 534.724 719.008 533.742 719.219 532.773C719.364 532.104 719.706 531.494 720.2 531.02C720.695 530.547 721.319 530.231 721.994 530.115C722.668 529.998 723.362 530.086 723.987 530.366C724.611 530.646 725.138 531.106 725.5 531.687L729.382 537.925C732.214 542.481 734.714 546.97 734.205 551.812C734.207 551.871 734.203 551.93 734.192 551.988C734.09 552.783 733.901 553.565 733.628 554.319L733.509 554.649Z" fill="#F0F0F0"/>
<path d="M766.818 555.367L451.461 555.674C451.146 555.672 450.845 555.546 450.623 555.323C450.401 555.1 450.276 554.798 450.276 554.483C450.276 554.169 450.401 553.867 450.623 553.644C450.845 553.42 451.146 553.294 451.461 553.293L766.818 552.985C767.133 552.987 767.434 553.113 767.656 553.337C767.878 553.56 768.002 553.861 768.002 554.176C768.002 554.491 767.878 554.792 767.656 555.016C767.434 555.239 767.133 555.365 766.818 555.367Z" fill="#CACACA"/>
</g>
<defs>
<clipPath id="clip0_21_399">
<rect width="768.003" height="555.674" fill="white"/>
</clipPath>
</defs>
</svg>
