<svg width="337" height="217" viewBox="0 0 337 217" fill="none" xmlns="http://www.w3.org/2000/svg">
<g opacity="0.85" clip-path="url(#clip0_27_73)">
<path d="M295.312 200.356C306.149 189.494 306.149 171.883 295.312 161.021C284.474 150.159 266.904 150.159 256.066 161.021C245.229 171.883 245.229 189.494 256.066 200.356C266.904 211.218 284.474 211.218 295.312 200.356Z" fill="#2F2E41"/>
<path d="M275.534 183.247C280.649 182.112 283.877 177.037 282.745 171.911C281.613 166.785 276.549 163.549 271.435 164.684C266.321 165.818 263.092 170.894 264.224 176.02C265.356 181.146 270.42 184.381 275.534 183.247Z" fill="white"/>
<path d="M270.326 174.604C272.031 174.226 273.107 172.534 272.73 170.826C272.352 169.117 270.664 168.038 268.959 168.416C267.255 168.795 266.179 170.486 266.556 172.195C266.933 173.904 268.621 174.982 270.326 174.604Z" fill="#3F3D56"/>
<path d="M274.593 161.885C263.243 161.864 255.276 159.832 255.295 149.526C255.314 139.22 264.53 130.883 275.879 130.904C287.229 130.925 296.414 139.296 296.395 149.602C296.375 159.908 285.942 161.906 274.593 161.885Z" fill="#E9C46A"/>
<path d="M319.185 185.338C315.929 196.657 306.424 204.58 296.509 211.311C295.124 212.251 293.739 213.17 292.354 214.066C292.345 214.071 292.335 214.079 292.325 214.084C292.259 214.126 292.192 214.169 292.13 214.213C291.844 214.397 291.558 214.582 291.274 214.765L291.43 214.835C291.43 214.835 291.583 214.916 291.416 214.848C291.366 214.827 291.314 214.808 291.264 214.787C285.504 212.459 279.642 209.959 275.227 205.597C270.648 201.067 267.972 193.963 270.452 188.012C270.778 187.233 271.189 186.492 271.679 185.804C271.88 185.516 272.097 185.24 272.322 184.969C273.69 183.296 275.478 182.018 277.502 181.267C279.525 180.516 281.712 180.318 283.837 180.695C285.962 181.072 287.949 182.009 289.593 183.411C291.237 184.812 292.478 186.627 293.19 188.669C293.919 181.871 288.326 176.177 282.944 171.975C277.56 167.776 271.442 163.203 270.401 156.443C269.819 152.681 271.124 149.036 273.501 146.11C273.575 146.021 273.648 145.933 273.724 145.846C276.618 142.438 280.688 140.25 285.121 139.718C293.378 138.858 301.397 143.238 307.395 148.992C317.049 158.249 322.885 172.468 319.185 185.338Z" fill="#E6E6E6"/>
<path d="M303.666 170.532C305.25 173.003 306.467 175.693 307.277 178.515C307.962 181.038 308.267 183.65 308.182 186.263C307.96 191.641 306.454 196.887 303.789 201.56C301.782 205.105 299.336 208.381 296.509 211.311C295.124 212.251 293.739 213.17 292.354 214.066C292.345 214.07 292.335 214.079 292.325 214.083C292.259 214.126 292.192 214.169 292.13 214.213C291.844 214.397 291.558 214.582 291.274 214.765C291.274 214.765 291.583 214.916 291.416 214.848C291.366 214.827 291.314 214.808 291.264 214.787C291.78 210.545 291.275 206.24 289.789 202.234C288.304 198.228 285.882 194.638 282.727 191.763C279.564 188.932 275.779 186.89 271.679 185.804C271.88 185.516 272.097 185.24 272.322 184.969C273.906 185.414 275.447 185.998 276.927 186.715C282.22 189.263 286.554 193.451 289.287 198.659C291.74 203.388 292.796 208.721 292.33 214.03C292.567 213.816 292.804 213.596 293.034 213.378C297.411 209.288 301.299 204.593 303.93 199.175C306.212 194.587 307.334 189.506 307.196 184.381C306.982 178.792 304.76 173.616 301.544 169.109C298.018 164.302 293.853 160 289.165 156.323C284.44 152.53 279.27 149.331 273.77 146.797C273.646 146.738 273.549 146.635 273.499 146.507C273.449 146.379 273.45 146.237 273.501 146.11C273.538 145.996 273.618 145.901 273.724 145.846C273.779 145.823 273.838 145.812 273.897 145.814C273.957 145.817 274.015 145.833 274.067 145.861C274.746 146.174 275.421 146.492 276.09 146.823C281.662 149.583 286.87 153.027 291.595 157.074C296.159 160.974 300.455 165.43 303.666 170.532Z" fill="white"/>
<path d="M47.4983 216.709C51.3784 216.709 54.5239 215.526 54.5239 214.068C54.5239 212.61 51.3784 211.427 47.4983 211.427C43.6182 211.427 40.4728 212.61 40.4728 214.068C40.4728 215.526 43.6182 216.709 47.4983 216.709Z" fill="#2F2E41"/>
<path d="M64.3595 216.357C68.2396 216.357 71.3851 215.174 71.3851 213.716C71.3851 212.258 68.2396 211.075 64.3595 211.075C60.4794 211.075 57.334 212.258 57.334 213.716C57.334 215.174 60.4794 216.357 64.3595 216.357Z" fill="#2F2E41"/>
<path d="M86.7436 171.973C93.3826 168.137 97.7906 163.334 96.5891 161.245C95.3876 159.156 89.0316 160.572 82.3926 164.408C75.7536 168.244 71.3456 173.047 72.5471 175.136C73.7486 177.225 80.1046 175.809 86.7436 171.973Z" fill="#2F2E41"/>
<path d="M80.5112 181.379C82.9663 166.216 72.6924 151.929 57.5639 149.469C42.4355 147.008 28.1812 157.305 25.7262 172.468C23.2712 187.631 33.5451 201.918 48.6735 204.379C63.802 206.84 78.0562 196.542 80.5112 181.379Z" fill="#2F2E41"/>
<path d="M48.9034 198.753H40.4728V213.892H48.9034V198.753Z" fill="#2F2E41"/>
<path d="M65.7646 198.753H57.334V213.892H65.7646V198.753Z" fill="#2F2E41"/>
<path d="M53.8213 179.388C59.0594 179.388 63.3057 175.132 63.3057 169.882C63.3057 164.632 59.0594 160.376 53.8213 160.376C48.5831 160.376 44.3368 164.632 44.3368 169.882C44.3368 175.132 48.5831 179.388 53.8213 179.388Z" fill="white"/>
<path d="M53.8213 173.051C55.5673 173.051 56.9828 171.632 56.9828 169.882C56.9828 168.132 55.5673 166.713 53.8213 166.713C52.0752 166.713 50.6598 168.132 50.6598 169.882C50.6598 171.632 52.0752 173.051 53.8213 173.051Z" fill="#3F3D56"/>
<path d="M26.1996 151.057C23.9588 140.999 31.1216 130.836 42.1981 128.357C53.2746 125.878 64.0704 132.022 66.3111 142.08C68.5519 152.138 61.2111 155.848 50.1346 158.327C39.0581 160.806 28.4403 161.115 26.1996 151.057Z" fill="#E6E6E6"/>
<path d="M34.3989 169.977C35.4298 167.799 30.6526 163.364 23.7287 160.073C16.8048 156.782 10.3562 155.879 9.32526 158.058C8.29434 160.237 13.0715 164.671 19.9954 167.962C26.9193 171.254 33.368 172.156 34.3989 169.977Z" fill="#2F2E41"/>
<path d="M39.4875 186.958C39.4875 189.68 46.4809 195.056 54.2411 195.056C62.0013 195.056 69.2774 187.392 69.2774 184.669C69.2774 181.947 62.0013 185.198 54.2411 185.198C46.481 185.198 39.4875 184.236 39.4875 186.958Z" fill="white"/>
<path d="M149.884 216.709C153.764 216.709 156.909 215.526 156.909 214.068C156.909 212.61 153.764 211.427 149.884 211.427C146.004 211.427 142.858 212.61 142.858 214.068C142.858 215.526 146.004 216.709 149.884 216.709Z" fill="#2F2E41"/>
<path d="M133.022 216.357C136.903 216.357 140.048 215.174 140.048 213.716C140.048 212.258 136.903 211.075 133.022 211.075C129.142 211.075 125.997 212.258 125.997 213.716C125.997 215.174 129.142 216.357 133.022 216.357Z" fill="#2F2E41"/>
<path d="M124.835 175.136C126.036 173.047 121.628 168.244 114.989 164.408C108.35 160.572 101.994 159.156 100.793 161.245C99.5914 163.334 103.999 168.137 110.638 171.973C117.277 175.809 123.633 177.225 124.835 175.136Z" fill="#2F2E41"/>
<path d="M144.263 204.738C159.59 204.738 172.014 192.285 172.014 176.924C172.014 161.562 159.59 149.109 144.263 149.109C128.937 149.109 116.512 161.562 116.512 176.924C116.512 192.285 128.937 204.738 144.263 204.738Z" fill="#2F2E41"/>
<path d="M156.909 198.753H148.479V213.892H156.909V198.753Z" fill="#2F2E41"/>
<path d="M140.048 198.753H131.617V213.892H140.048V198.753Z" fill="#2F2E41"/>
<path d="M137.761 179.388C143 179.388 147.246 175.132 147.246 169.882C147.246 164.632 143 160.376 137.761 160.376C132.523 160.376 128.277 164.632 128.277 169.882C128.277 175.132 132.523 179.388 137.761 179.388Z" fill="white"/>
<path d="M135.476 170.823C136.715 169.582 136.723 167.577 135.494 166.344C134.265 165.112 132.265 165.118 131.026 166.358C129.787 167.599 129.779 169.604 131.008 170.837C132.237 172.069 134.237 172.063 135.476 170.823Z" fill="#3F3D56"/>
<path d="M147.247 158.327C136.171 155.848 128.83 152.138 131.071 142.08C133.312 132.022 144.107 125.878 155.184 128.357C166.26 130.836 173.423 140.999 171.182 151.057C168.942 161.115 158.324 160.805 147.247 158.327Z" fill="#E9C46A"/>
<path d="M173.283 198.126C175.608 197.507 175.898 190.987 173.931 183.564C171.964 176.14 168.484 170.624 166.159 171.243C163.834 171.862 163.544 178.382 165.511 185.805C167.478 193.228 170.958 198.744 173.283 198.126Z" fill="#2F2E41"/>
<path d="M137.976 185.198C132.882 185.198 128.105 181.948 128.105 184.67C128.105 187.392 132.881 195.056 137.976 195.056C143.071 195.056 147.662 189.681 147.662 186.958C147.662 184.236 143.071 185.198 137.976 185.198Z" fill="white"/>
<path d="M102.113 130.806H99.6483C97.4406 130.804 95.324 129.924 93.7629 128.359C92.2019 126.794 91.3238 124.673 91.3213 122.46V120.387C91.3213 115.25 92.2922 110.95 94.2074 107.604C96.5283 103.712 99.2359 100.066 102.289 96.7207C104.316 94.6778 106.155 92.456 107.784 90.0823C108.953 88.2382 109.556 86.0909 109.519 83.9065C109.519 78.754 106.17 76.2492 99.2801 76.2492C95.4581 76.2925 91.6604 76.8638 87.9941 77.947C86.5802 78.3516 85.0919 78.4217 83.6464 78.1518C82.2009 77.882 80.8376 77.2795 79.6638 76.3919C78.49 75.5043 77.5378 74.3558 76.8821 73.0367C76.2264 71.7176 75.885 70.264 75.885 68.7903V64.5924C75.8769 62.7852 76.392 61.0145 77.3678 59.4949C78.3436 57.9753 79.7383 56.772 81.3828 56.031C87.8578 53.2614 94.8407 51.8845 101.88 51.9895C109.254 51.9895 115.911 53.231 121.666 55.679C127.432 58.1328 131.987 61.5928 135.205 65.9632C138.413 70.3026 140.119 75.5743 140.061 80.975C140.061 86.7746 138.481 91.8258 135.366 95.9884C132.284 100.109 127.867 104.62 122.236 109.396C119.27 111.869 116.458 114.523 113.819 117.344C112.114 119.185 110.909 121.433 110.319 123.874C109.991 125.816 108.986 127.578 107.483 128.848C105.981 130.117 104.078 130.811 102.113 130.806Z" fill="#E9C46A"/>
<path d="M100.742 170.055H100.417C96.3261 170.052 92.4031 168.421 89.511 165.52C86.6189 162.62 84.9943 158.687 84.9943 154.586C84.9943 150.485 86.6189 146.552 89.511 143.652C92.4031 140.751 96.3261 139.12 100.417 139.118H100.742C102.77 139.116 104.778 139.515 106.652 140.292C108.525 141.069 110.228 142.208 111.662 143.645C113.096 145.081 114.234 146.787 115.01 148.664C115.786 150.542 116.186 152.554 116.186 154.586C116.186 156.618 115.786 158.631 115.01 160.508C114.234 162.385 113.096 164.091 111.662 165.528C110.228 166.964 108.525 168.103 106.652 168.88C104.778 169.657 102.77 170.056 100.742 170.055Z" fill="#E9C46A"/>
<path d="M201.04 217H0.644359C0.473465 217 0.309579 216.932 0.188738 216.811C0.067897 216.69 0 216.525 0 216.354C0 216.183 0.067897 216.019 0.188738 215.897C0.309579 215.776 0.473465 215.708 0.644359 215.708H201.04C201.211 215.708 201.375 215.776 201.496 215.897C201.617 216.019 201.685 216.183 201.685 216.354C201.685 216.525 201.617 216.69 201.496 216.811C201.375 216.932 201.211 217 201.04 217Z" fill="#CCCCCC"/>
<path d="M336.356 217H229.392C229.221 217 229.057 216.932 228.936 216.811C228.815 216.69 228.748 216.525 228.748 216.354C228.748 216.183 228.815 216.019 228.936 215.897C229.057 215.776 229.221 215.708 229.392 215.708H336.356C336.526 215.708 336.69 215.776 336.811 215.897C336.932 216.019 337 216.183 337 216.354C337 216.525 336.932 216.69 336.811 216.811C336.69 216.932 336.526 217 336.356 217Z" fill="#CCCCCC"/>
<path d="M269.968 198.135C277.63 197.985 283.802 195.909 283.755 193.498C283.708 191.088 277.459 189.255 269.797 189.405C262.136 189.555 255.963 191.632 256.01 194.042C256.057 196.453 262.306 198.286 269.968 198.135Z" fill="#2F2E41"/>
<path d="M263.003 96.2292H246.249C245.395 96.2283 244.576 95.8877 243.972 95.2824C243.368 94.677 243.029 93.8562 243.028 93.0001V76.2084C243.029 75.3523 243.368 74.5315 243.972 73.9261C244.576 73.3208 245.395 72.9802 246.249 72.9792H263.003C263.857 72.9802 264.676 73.3208 265.28 73.9261C265.884 74.5315 266.224 75.3523 266.225 76.2084V93.0001C266.224 93.8562 265.884 94.677 265.28 95.2824C264.676 95.8877 263.857 96.2283 263.003 96.2292ZM246.249 74.2709C245.737 74.2715 245.246 74.4758 244.883 74.839C244.521 75.2022 244.317 75.6947 244.316 76.2084V93.0001C244.317 93.5138 244.521 94.0063 244.883 94.3695C245.246 94.7327 245.737 94.937 246.249 94.9376H263.003C263.515 94.937 264.007 94.7327 264.369 94.3695C264.731 94.0063 264.935 93.5138 264.936 93.0001V76.2084C264.935 75.6947 264.731 75.2022 264.369 74.839C264.007 74.4758 263.515 74.2715 263.003 74.2709H246.249Z" fill="#F2F2F2"/>
<path d="M270.735 85.25H253.982C253.128 85.249 252.309 84.9085 251.705 84.3031C251.101 83.6977 250.761 82.877 250.76 82.0208V65.2292C250.761 64.373 251.101 63.5523 251.705 62.9469C252.309 62.3415 253.128 62.001 253.982 62H270.735C271.589 62.001 272.408 62.3415 273.012 62.9469C273.616 63.5523 273.956 64.373 273.957 65.2292V82.0208C273.956 82.877 273.616 83.6977 273.012 84.3031C272.408 84.9085 271.589 85.249 270.735 85.25ZM253.982 63.2917C253.469 63.2922 252.978 63.4965 252.615 63.8598C252.253 64.223 252.049 64.7155 252.049 65.2292V82.0208C252.049 82.5345 252.253 83.027 252.615 83.3902C252.978 83.7535 253.469 83.9578 253.982 83.9583H270.735C271.248 83.9578 271.739 83.7535 272.101 83.3902C272.464 83.027 272.668 82.5345 272.668 82.0208V65.2292C272.668 64.7155 272.464 64.223 272.101 63.8598C271.739 63.4965 271.248 63.2922 270.735 63.2917H253.982Z" fill="#F2F2F2"/>
<path d="M138.641 31.6458H121.888C121.034 31.6448 120.215 31.3042 119.611 30.6989C119.007 30.0935 118.667 29.2727 118.666 28.4166V11.6249C118.667 10.7688 119.007 9.94802 119.611 9.34264C120.215 8.73727 121.034 8.39673 121.888 8.39575H138.641C139.495 8.39673 140.314 8.73727 140.918 9.34264C141.522 9.94802 141.862 10.7688 141.863 11.6249V28.4166C141.862 29.2727 141.522 30.0935 140.918 30.6989C140.314 31.3042 139.495 31.6448 138.641 31.6458ZM121.888 9.68742C121.375 9.68798 120.884 9.89229 120.522 10.2555C120.159 10.6187 119.955 11.1112 119.955 11.6249V28.4166C119.955 28.9303 120.159 29.4228 120.522 29.786C120.884 30.1492 121.375 30.3535 121.888 30.3541H138.641C139.154 30.3535 139.645 30.1492 140.008 29.786C140.37 29.4228 140.574 28.9303 140.574 28.4166V11.6249C140.574 11.1112 140.37 10.6187 140.008 10.2555C139.645 9.89229 139.154 9.68798 138.641 9.68742H121.888Z" fill="#F2F2F2"/>
<path d="M128.332 23.25H111.578C110.724 23.249 109.905 22.9085 109.301 22.3031C108.697 21.6977 108.357 20.877 108.356 20.0208V3.22917C108.357 2.37304 108.697 1.55227 109.301 0.946892C109.905 0.341518 110.724 0.00097944 111.578 0H128.332C129.186 0.00097944 130.005 0.341518 130.609 0.946892C131.213 1.55227 131.552 2.37304 131.553 3.22917V20.0208C131.552 20.877 131.213 21.6977 130.609 22.3031C130.005 22.9085 129.186 23.249 128.332 23.25ZM111.578 1.29167C111.066 1.29223 110.574 1.49654 110.212 1.85977C109.85 2.223 109.646 2.71548 109.645 3.22917V20.0208C109.646 20.5345 109.85 21.027 110.212 21.3902C110.574 21.7535 111.066 21.9578 111.578 21.9583H128.332C128.844 21.9578 129.335 21.7535 129.698 21.3902C130.06 21.027 130.264 20.5345 130.265 20.0208V3.22917C130.264 2.71548 130.06 2.223 129.698 1.85977C129.335 1.49654 128.844 1.29223 128.332 1.29167H111.578Z" fill="#F2F2F2"/>
<path d="M206.981 122.474C209.283 122.474 211.148 120.604 211.148 118.297C211.148 115.991 209.283 114.121 206.981 114.121C204.68 114.121 202.814 115.991 202.814 118.297C202.814 120.604 204.68 122.474 206.981 122.474Z" fill="#F2F2F2"/>
<path d="M39.448 107.62C41.7494 107.62 43.615 105.75 43.615 103.443C43.615 101.136 41.7494 99.2666 39.448 99.2666C37.1466 99.2666 35.281 101.136 35.281 103.443C35.281 105.75 37.1466 107.62 39.448 107.62Z" fill="#F2F2F2"/>
<path d="M320.389 143.786C322.69 143.786 324.556 141.917 324.556 139.61C324.556 137.303 322.69 135.433 320.389 135.433C318.087 135.433 316.222 137.303 316.222 139.61C316.222 141.917 318.087 143.786 320.389 143.786Z" fill="#F2F2F2"/>
</g>
<defs>
<clipPath id="clip0_27_73">
<rect width="337" height="217" fill="white"/>
</clipPath>
</defs>
</svg>
