<svg width="788" height="839" viewBox="0 0 788 839" fill="none" xmlns="http://www.w3.org/2000/svg">
<g opacity="0.85" clip-path="url(#clip0_29_217)">
<path d="M376.313 814.535C376.153 822.124 377.201 829.691 379.415 836.952C379.493 837.216 379.586 837.479 379.679 837.743H425.339C424.686 834.528 423.65 831.403 422.252 828.435C418.452 820.368 412.249 813.464 406.123 806.607C397.685 797.159 389.45 787.789 388.147 775.502C384.803 780.602 382.134 786.114 380.206 791.9C382.566 792.774 384.731 794.102 386.581 795.809C387.092 796.29 387.635 796.988 387.372 797.656C387.123 798.214 386.441 798.4 385.836 798.524C384.378 798.804 382.92 799.083 381.463 799.347C380.315 799.579 379.152 799.796 377.988 800.014C376.966 804.789 376.405 809.652 376.313 814.535Z" fill="#E6E6E6"/>
<path d="M337.959 809.508C345.279 813.961 349.932 820.849 353.732 828.559C357.038 829.313 360.091 830.917 362.588 833.213C363.115 833.694 363.658 834.392 363.379 835.059C363.146 835.618 362.448 835.804 361.843 835.928C360.401 836.207 358.927 836.487 357.485 836.75C357.625 837.076 357.764 837.417 357.904 837.743H406.293C404.096 834.78 401.664 831.999 399.019 829.428C398.445 828.854 397.856 828.311 397.251 827.752C391.083 822.176 384 817.705 376.313 814.535C364.204 809.471 350.963 807.736 337.959 809.508Z" fill="#E6E6E6"/>
<path d="M398.228 837.743H441.313C441.549 834.292 441.528 830.828 441.251 827.38C440.318 816.707 437.083 806.363 431.768 797.062C426.453 787.76 419.185 779.722 410.465 773.501C412.698 781.46 411.551 789.372 409.224 797.315C409.55 797.423 409.876 797.516 410.17 797.64C412.53 798.515 414.696 799.843 416.545 801.55C417.057 802.031 417.599 802.729 417.336 803.396C417.103 803.954 416.405 804.141 415.8 804.265C414.342 804.544 412.885 804.823 411.442 805.087C410.279 805.32 409.116 805.537 407.953 805.77C407.41 805.863 406.867 805.971 406.324 806.08C406.247 806.266 406.2 806.437 406.122 806.607C403.393 814.131 400.415 821.718 399.019 829.428C398.674 831.363 398.435 833.315 398.306 835.277C398.259 836.099 398.228 836.921 398.228 837.743Z" fill="#E6E6E6"/>
<path d="M708.215 814.535C708.055 822.124 709.102 829.691 711.317 836.952C711.395 837.216 711.488 837.479 711.581 837.743H757.241C756.588 834.528 755.552 831.403 754.154 828.435C750.354 820.368 744.151 813.464 738.024 806.607C729.587 797.159 721.352 787.789 720.049 775.502C716.705 780.602 714.035 786.114 712.108 791.9C714.468 792.774 716.633 794.102 718.482 795.809C718.994 796.29 719.537 796.988 719.273 797.656C719.025 798.214 718.343 798.4 717.738 798.524C716.28 798.804 714.822 799.083 713.364 799.347C712.217 799.579 711.053 799.796 709.89 800.014C708.868 804.789 708.307 809.652 708.215 814.535Z" fill="#E6E6E6"/>
<path d="M669.86 809.508C677.181 813.961 681.834 820.849 685.633 828.559C688.94 829.313 691.993 830.917 694.489 833.213C695.017 833.694 695.56 834.392 695.28 835.059C695.048 835.618 694.35 835.804 693.745 835.928C692.303 836.207 690.829 836.487 689.387 836.75C689.526 837.076 689.666 837.417 689.806 837.743H738.195C735.998 834.78 733.566 831.999 730.921 829.428C730.347 828.854 729.758 828.311 729.153 827.752C722.984 822.176 715.902 817.705 708.215 814.535C696.106 809.471 682.865 807.736 669.86 809.508Z" fill="#E6E6E6"/>
<path d="M730.13 837.743H773.215C773.451 834.292 773.43 830.828 773.153 827.38C772.22 816.707 768.985 806.363 763.67 797.062C758.355 787.76 751.087 779.722 742.367 773.501C744.6 781.46 743.453 789.372 741.126 797.315C741.452 797.423 741.778 797.516 742.072 797.64C744.432 798.515 746.597 799.843 748.447 801.55C748.958 802.031 749.501 802.729 749.238 803.396C749.005 803.954 748.307 804.141 747.702 804.265C746.244 804.544 744.786 804.823 743.344 805.087C742.181 805.32 741.018 805.537 739.854 805.77C739.312 805.863 738.769 805.971 738.226 806.08C738.148 806.266 738.102 806.437 738.024 806.607C735.295 814.131 732.317 821.718 730.921 829.428C730.576 831.363 730.337 833.315 730.208 835.277C730.161 836.099 730.13 836.921 730.13 837.743Z" fill="#E6E6E6"/>
<path d="M623.302 267.543C635.197 247.865 649.292 226.854 671.365 220.429C696.928 212.987 723.187 227.769 745.461 242.356C812.073 285.981 876.222 333.258 937.613 383.971L937.546 384.735C889.75 381.438 841.955 378.141 794.159 374.844C759.627 372.462 723.909 369.751 693.392 353.411C681.812 347.21 670.523 338.927 657.401 338.35C641.098 337.633 626.883 349.023 615.712 360.922C549.63 431.309 530.507 538.949 456.371 600.789C503.119 485.467 558.938 374.036 623.302 267.543Z" fill="#F2F2F2"/>
<path d="M232.758 837.744H239.303C296.269 763.712 349.87 687.25 400.105 608.357C435.187 553.314 468.527 497.206 500.125 440.033C501.986 436.666 503.842 433.294 505.693 429.918C518.768 406.057 531.537 382.037 544.001 357.856C555.044 336.447 565.834 314.914 576.37 293.257C579.379 287.067 582.31 280.861 585.226 274.625C592.096 259.98 598.827 245.257 606.07 230.814C613.375 216.216 622.092 201.012 634.499 190.044C636.093 188.614 637.76 187.268 639.493 186.01C641.457 184.57 643.52 183.269 645.666 182.116C645.883 181.992 646.1 181.884 646.317 181.759C651.559 178.963 657.328 177.298 663.254 176.873C675.584 176.066 686.952 181.17 697.653 186.724C715.706 196.141 733.485 206.101 750.99 216.603C809.152 251.563 864.036 291.711 914.972 336.556C915.096 336.664 915.235 336.789 915.359 336.897C981.771 395.236 1041.13 461.147 1092.23 533.286C1093.8 535.52 1097.49 533.379 1095.9 531.145C1089.7 522.349 1083.37 513.651 1076.91 505.051C1028.71 440.899 973.856 382.032 913.266 329.435C906.488 323.54 899.633 317.727 892.7 311.997C858.667 283.813 823.022 257.633 785.949 233.591C774.596 226.222 763.114 219.075 751.502 212.151C743.81 207.543 736.065 203.029 728.269 198.607C718.405 193.022 708.494 187.5 698.413 182.333C688.534 177.245 678.05 172.684 666.759 172.513C658.624 172.365 650.589 174.321 643.432 178.191C643.215 178.315 642.983 178.424 642.766 178.564C638.391 181.012 634.329 183.982 630.668 187.406C614.275 202.594 603.31 226.424 594.779 244.714C590.483 253.945 586.135 263.134 581.736 272.282C565.125 307.049 547.869 341.505 529.965 375.651C520.396 393.879 510.646 412.03 500.715 430.104C499.195 432.912 497.644 435.72 496.093 438.512C460.204 503.375 422.061 566.93 381.664 629.176C333.694 703.084 286.049 769.266 232.758 837.744Z" fill="#E4E4E4"/>
<path d="M429.734 518.491L372.497 497.55L344.079 487.153C334.823 483.767 325.59 479.912 316.023 477.487C307.708 475.112 298.879 475.224 290.628 477.811C283.269 480.535 276.533 484.712 270.821 490.093C264.985 495.469 259.555 501.269 254.575 507.447C248.388 514.885 242.292 522.4 236.169 529.891C210.897 560.806 185.791 591.855 160.85 623.038C135.91 654.22 111.136 685.535 86.5294 716.983C61.8624 748.507 37.3648 780.163 13.0371 811.952C10.0569 815.846 7.07932 819.742 4.10422 823.64C2.46054 825.793 -1.24561 823.67 0.421295 821.486C24.9285 789.379 49.6065 757.402 74.4554 725.558C99.3654 693.637 124.447 661.851 149.702 630.201C174.955 598.551 200.38 567.039 225.975 535.664C232.351 527.847 238.738 520.04 245.136 512.24C250.532 505.661 255.868 499.011 261.787 492.888C272.652 481.648 286.227 471.715 302.475 471.445C312.029 471.287 321.274 474.319 330.15 477.531C339.719 480.994 349.265 484.521 358.822 488.018L416.459 509.105L430.868 514.376C433.425 515.312 432.321 519.437 429.734 518.491V518.491Z" fill="#E4E4E4"/>
<path d="M272.976 518.7C278.61 511.839 284.702 504.656 293.13 501.87L300.998 502.18C241.104 608.044 160.212 700.548 63.2888 774.013C133.185 688.909 203.08 603.804 272.976 518.7Z" fill="#F2F2F2"/>
<path d="M624.383 685.236L668.571 349.231C668.877 346.861 669.654 344.576 670.856 342.51C672.058 340.445 673.661 338.64 675.571 337.203L672.761 333.495C670.359 335.302 668.343 337.571 666.832 340.17C665.32 342.768 664.343 345.642 663.958 348.624L619.769 684.63L624.383 685.236Z" fill="#3F3D56"/>
<path d="M612.66 503.484C602.317 503.484 593.933 495.097 593.933 484.752C593.933 474.406 602.317 466.02 612.66 466.02C623.002 466.02 631.386 474.406 631.386 484.752C631.386 495.097 623.002 503.484 612.66 503.484Z" fill="#FFB8B8"/>
<path d="M706.612 558.203C703.105 552.548 698.697 547.505 693.562 543.274C698.18 548.662 701.329 555.151 702.704 562.113C701.48 563.159 700.178 564.109 698.808 564.956C694.688 567.458 690.157 569.213 685.427 570.139C681.581 561.968 675.972 554.751 669.004 549.008C674.338 555.233 677.699 562.906 678.659 571.048C673.278 571.383 667.876 571.044 662.579 570.038C654.632 568.568 646.715 565.78 640.585 560.521C633.95 554.828 629.872 546.616 627.686 538.148C625.501 529.687 625.051 520.885 624.618 512.155C624.409 507.995 620.29 503.788 620.081 499.628L620.349 499.588C621.929 496.938 623.052 494.041 623.67 491.018C623.961 489.502 623.871 487.938 623.408 486.467C622.944 484.995 622.122 483.661 621.016 482.586C619.711 481.557 618.159 480.889 616.516 480.648C616.34 480.482 616.151 480.325 615.956 480.169C612.431 477.391 608.45 475.248 604.191 473.834C606.994 475.223 609.329 477.404 610.905 480.106C608.351 479.932 605.798 479.759 603.245 479.589C602.287 478.836 601.293 478.132 600.264 477.479C599.082 476.783 597.85 476.174 596.579 475.66C598.021 476.591 599.22 477.853 600.076 479.342C596.778 479.017 593.42 478.29 591.359 475.802C587.942 471.689 590.288 465.099 594.433 461.717C597.462 459.353 601.157 458.001 604.997 457.852C608.836 457.703 612.625 458.765 615.828 460.888C621.682 455.059 631.059 453.739 638.917 456.267C644.121 458.043 648.823 461.041 652.629 465.01C650.771 465.048 648.917 465.195 647.076 465.449C649.72 465.44 652.329 466.047 654.698 467.222C655.867 468.554 656.965 469.947 657.987 471.395C658.658 472.346 659.302 473.315 659.918 474.301C663.534 480.408 666.721 486.759 669.457 493.308C672.849 500.839 676.411 508.4 681.615 514.816C689.58 524.563 700.821 531.076 713.237 533.137C715.553 541.881 712.513 551.226 706.612 558.203Z" fill="#2F2E41"/>
<path d="M615.786 461.41C618.504 464.363 620.503 467.903 621.629 471.755C622.755 475.607 622.978 479.667 622.279 483.62L615.786 461.41Z" fill="#FD6584"/>
<path d="M557.819 571.635C558.309 572.577 559 573.401 559.842 574.048C560.685 574.696 561.659 575.15 562.696 575.38C563.733 575.609 564.808 575.609 565.845 575.378C566.882 575.147 567.856 574.692 568.698 574.044L590.281 588.222L590.256 574.8L569.763 563.394C568.581 562.051 566.948 561.189 565.173 560.97C563.398 560.752 561.604 561.192 560.132 562.208C558.66 563.223 557.611 564.744 557.185 566.482C556.759 568.219 556.985 570.052 557.819 571.635Z" fill="#FFB8B8"/>
<path d="M635.453 520.007C635.453 520.007 644.31 532.282 644.046 546.66C643.782 561.039 631.558 608.506 625.505 608.395C619.453 608.284 571.52 580.908 571.52 580.908L578.565 568.168L613.089 583.942C613.089 583.942 609.842 513.48 635.453 520.007Z" fill="#BB9331"/>
<path d="M650.993 570.585L652.91 596.343L658.034 615.751L613.511 619.84L600.247 577.287L605.113 565.771L650.993 570.585Z" fill="#FFB8B8"/>
<path d="M599.665 527.082L603.341 523.655L605.17 512.521L625.367 506.061L634.036 513.615L649.079 517.637L654.938 546.057L660.36 581.279L605.645 596.229L595.767 572.106C595.767 572.106 578.517 556.942 590.765 543.544L599.665 527.082Z" fill="#BB9331"/>
<path d="M592.856 666.906C594.154 666.019 595.689 665.543 597.261 665.541H691.868C693.925 665.541 695.897 666.358 697.352 667.812C698.806 669.267 699.623 671.24 699.623 673.297C699.623 675.355 698.806 677.328 697.352 678.782C695.897 680.237 693.925 681.054 691.868 681.054H597.261C595.624 681.052 594.03 680.533 592.704 679.572C591.379 678.611 590.39 677.257 589.878 675.702C589.635 674.923 589.51 674.113 589.506 673.297C589.508 672.041 589.813 670.803 590.396 669.69C590.98 668.577 591.824 667.622 592.856 666.906Z" fill="#BB9331"/>
<path d="M740.072 499.916C747.578 629.921 776.813 758.871 851.305 837.743H1196.37C1196.41 837.774 1196.42 837.805 1196.45 837.836C1196.53 837.945 1196.61 838.054 1196.7 838.178L1197.29 837.743H1229.72L1229.3 836.378C1223.66 834.369 1218.2 831.91 1212.95 829.025C1211.05 827.954 1209.25 826.868 1207.56 825.736C1203.8 823.276 1200.29 820.46 1197.07 817.327C1193.37 813.689 1190.12 809.622 1187.38 805.211C1182.2 796.958 1178.99 788.068 1175.86 779.008C1174.63 775.456 1173.41 771.872 1172.09 768.288C1165.08 749.268 1155.15 730.264 1125.16 715.262C1034.61 669.978 967.455 526.211 927.379 384.043C926.355 380.398 925.347 376.752 924.355 373.106C921.02 360.866 917.892 348.682 914.971 336.556C914.382 334.182 913.824 331.809 913.265 329.435C902.494 284.306 894.364 238.587 888.915 192.51C885.116 159.016 883.642 129.493 884.588 106.269C884.853 94.9829 886.219 83.7493 888.667 72.7286L774.394 67.9038C774.394 67.9038 772.657 76.002 769.927 90.6315C767.167 105.494 763.382 127.104 759.396 153.788C756.775 171.225 754.077 190.85 751.502 212.151C751.331 213.625 751.161 215.114 750.99 216.603C749.936 225.446 748.912 234.599 747.935 243.985C743.933 282.164 740.614 324.486 739.017 368.747C738.815 374.13 738.645 379.539 738.505 384.974C737.512 422.533 737.838 461.271 740.072 499.916Z" fill="#2F2E41"/>
<path d="M745.945 389.406L588.257 295.272L566.826 361.375L827.133 569.543L745.945 389.406Z" fill="#2F2E41"/>
<path d="M395.126 225.399C395.266 225.105 395.421 224.81 395.592 224.515C401.878 212.7 411.376 202.903 422.989 196.254C434.603 189.606 447.858 186.377 461.227 186.941C467.494 187.24 473.754 186.215 479.599 183.933C485.443 181.65 490.741 178.16 495.147 173.692L495.767 173.056C501.534 167.237 507.993 162.146 514.999 157.899L515.526 157.573L515.96 158.039C520.01 162.344 524.604 166.104 529.624 169.224C529.05 168.573 528.523 167.905 527.996 167.207C527.994 167.207 527.991 167.207 527.99 167.206C527.988 167.205 527.986 167.204 527.985 167.203C527.983 167.201 527.982 167.2 527.981 167.198C527.98 167.196 527.98 167.194 527.98 167.192C525.207 163.525 522.909 159.521 521.14 155.277L520.861 154.61L521.42 154.331L521.513 154.284C540.247 144.754 561.512 141.384 582.274 144.654C603.036 147.925 622.236 157.669 637.135 172.498C639.105 174.452 640.997 176.485 642.765 178.563C643.758 179.727 644.735 180.906 645.666 182.116C655.008 194.108 661.466 208.09 664.541 222.979V222.995C664.727 223.864 664.897 224.717 665.052 225.586C667.951 241.419 666.98 257.718 662.225 273.096C657.47 288.474 649.07 302.474 637.74 313.905C635.445 316.217 633.025 318.436 630.528 320.514C628.714 322.035 626.837 323.478 624.93 324.843C607.05 337.508 591.195 352.814 577.905 370.236C572.363 377.57 567.351 385.289 562.907 393.336C559.704 399.126 555.716 404.445 551.058 409.145C550.252 409.936 549.414 410.742 548.546 411.534L547.553 412.464L547.274 411.13C546.855 409.123 546.555 407.092 546.374 405.049V405.033C546.19 403.043 546.143 401.042 546.235 399.045C544.773 403.068 543.708 407.225 543.055 411.456V411.472C542.807 413.038 542.621 414.59 542.481 416.188L542.45 416.529L542.156 416.746C541.256 417.398 540.341 418.018 539.411 418.608C529.32 425.193 517.713 429.086 505.693 429.917C504.049 430.042 502.374 430.104 500.714 430.104C498.977 430.104 497.24 430.042 495.503 429.917C477.502 428.586 460.689 420.429 448.498 407.113C436.308 393.798 429.66 376.328 429.914 358.275C429.88 349.008 427.995 339.842 424.37 331.314C420.746 322.786 415.454 315.069 408.806 308.615C408.728 308.522 408.635 308.429 408.542 308.336L408.294 308.088C399.382 299.258 392.976 288.218 389.729 276.098L389.481 275.152L390.039 275.137H390.458C392.834 275.093 395.205 274.917 397.561 274.609C402.768 273.978 407.885 272.744 412.807 270.932C405.564 271.336 397.67 269.846 388.271 266.371L387.821 266.201L387.775 265.735C386.179 251.858 388.738 237.82 395.126 225.399Z" fill="#3F3D56"/>
<path opacity="0.15" d="M439.32 386.034C439.295 388.59 439.408 391.146 439.659 393.689C433.4 382.687 430.166 370.222 430.287 357.563C430.309 355.626 430.222 353.689 430.065 351.757C436.164 362.147 439.36 373.985 439.32 386.034Z" fill="black"/>
<path opacity="0.15" d="M422.212 298.694C416.449 300.791 410.431 302.11 404.319 302.615C402.132 300.011 400.135 297.252 398.343 294.36C407.442 297.67 415.144 299.084 422.212 298.694Z" fill="black"/>
<path opacity="0.15" d="M397.675 273.902C396.683 279.981 396.482 286.163 397.078 292.293C394.029 286.986 391.683 281.305 390.101 275.392L389.845 274.439L390.831 274.42C393.119 274.362 395.404 274.189 397.675 273.902Z" fill="black"/>
<path opacity="0.15" d="M408.246 207.136C415.201 200.136 423.538 194.663 432.725 191.064C441.912 187.466 451.748 185.821 461.605 186.236C467.871 186.534 474.129 185.508 479.971 183.224C485.814 180.941 491.11 177.452 495.513 172.984L496.135 172.351C501.902 166.533 508.359 161.443 515.362 157.193L515.897 156.87L516.325 157.325C520.375 161.631 524.97 165.39 529.993 168.507C526.454 164.333 523.594 159.629 521.518 154.565L521.233 153.9L521.879 153.572C535.925 146.442 551.457 142.734 567.208 142.751C582.96 142.768 598.484 146.51 612.514 153.672C626.544 160.833 638.683 171.211 647.941 183.958C657.198 196.706 663.311 211.462 665.781 227.022C659.939 215.156 651.8 204.568 641.836 195.871C631.873 187.174 620.283 180.541 607.738 176.358C595.193 172.174 581.943 170.522 568.755 171.498C555.567 172.474 542.704 176.058 530.912 182.043L530.266 182.37L530.551 183.035C532.627 188.099 535.487 192.804 539.026 196.977C534.003 193.861 529.408 190.101 525.357 185.795L524.93 185.34L524.395 185.664C517.392 189.913 510.935 195.004 505.168 200.822L504.546 201.454C500.142 205.922 494.846 209.411 489.004 211.695C483.161 213.978 476.903 215.004 470.638 214.706C454.251 214.001 438.126 219.004 425.014 228.861C411.902 238.719 402.614 252.82 398.734 268.762C395.311 267.934 391.941 266.897 388.645 265.656L388.199 265.491L388.147 265.019C386.934 254.48 388.112 243.804 391.592 233.783C395.071 223.762 400.764 214.654 408.246 207.136Z" fill="black"/>
<path d="M1254.6 0C1253.44 17.9272 1250.29 35.6701 1245.21 52.902C1235.19 87.099 1217.66 118.628 1193.91 145.193C1193.2 145.985 1192.48 146.776 1191.77 147.551C1191.05 148.343 1190.33 149.118 1189.6 149.894C1188.87 150.67 1188.14 151.43 1187.39 152.19C1186.65 152.95 1185.92 153.71 1185.16 154.471C1182.18 157.48 1179.11 160.397 1175.98 163.236C1175.19 163.949 1174.4 164.648 1173.61 165.346C1171.23 167.456 1168.83 169.503 1166.36 171.489C1165.54 172.156 1164.72 172.823 1163.9 173.475C1163.06 174.127 1162.24 174.778 1161.4 175.43C1160.56 176.066 1159.73 176.702 1158.89 177.338C1157.2 178.61 1155.49 179.851 1153.79 181.077C1153.06 181.589 1152.34 182.085 1151.61 182.597C1149.74 183.9 1147.86 185.172 1145.95 186.413C1145.18 186.91 1144.4 187.422 1143.63 187.903C1143.39 188.058 1143.16 188.213 1142.93 188.353C1142.17 188.849 1141.39 189.314 1140.62 189.795C1139.73 190.354 1138.83 190.897 1137.92 191.44C1136.12 192.526 1134.31 193.581 1132.48 194.62C1130.61 195.66 1128.75 196.684 1126.88 197.676C1125.03 198.654 1123.19 199.616 1121.32 200.531C1120.52 200.934 1119.73 201.322 1118.92 201.71C1118.61 201.865 1118.32 202.005 1118.01 202.16L1115.63 203.277C1114.69 203.727 1113.72 204.161 1112.76 204.596C1111.8 205.03 1110.84 205.449 1109.88 205.868C1107.96 206.721 1106 207.528 1104.06 208.319C1103.09 208.707 1102.09 209.11 1101.12 209.482C1100.14 209.87 1099.15 210.243 1098.17 210.615C1096.56 211.22 1094.93 211.809 1093.3 212.368C1092.38 212.709 1091.47 213.02 1090.55 213.314C1090.07 213.469 1089.61 213.64 1089.14 213.795C1087.92 214.199 1086.68 214.602 1085.44 214.974C1082.21 215.983 1078.95 216.929 1075.7 217.798C1074.22 218.201 1072.73 218.573 1071.24 218.946C1070.03 219.241 1068.82 219.52 1067.62 219.799C1066.9 219.97 1066.17 220.14 1065.44 220.295C1062.48 220.947 1059.52 221.537 1056.53 222.08C1055.36 222.297 1054.22 222.498 1053.05 222.685C1052.77 222.731 1052.51 222.778 1052.25 222.824C1050.83 223.057 1049.41 223.274 1047.98 223.476L1047.33 223.569C1046.1 223.74 1044.88 223.91 1043.65 224.065C1043.17 224.112 1042.69 224.174 1042.21 224.236C1041.13 224.376 1040.04 224.5 1038.95 224.608C1038.1 224.701 1037.25 224.779 1036.38 224.857C1035.31 224.965 1034.25 225.058 1033.18 225.151C1031.62 225.275 1030.04 225.384 1028.47 225.477C1026.97 225.57 1025.46 225.648 1023.96 225.71C1022.56 225.772 1021.16 225.818 1019.78 225.849C1019.24 225.865 1018.71 225.88 1018.19 225.88C1016.74 225.911 1015.3 225.927 1013.88 225.927C990.861 225.917 967.968 222.599 945.897 216.076C932.9 212.236 920.242 207.328 908.054 201.4C901.68 198.297 895.3 195.334 888.916 192.51C847.63 173.969 804.082 160.95 759.396 153.788C737.008 150.265 714.392 148.383 691.729 148.156C675.776 148.004 659.923 145.628 644.627 141.098C642.021 140.338 639.338 139.469 636.655 138.538L633.553 137.467L636.081 135.358C643.524 129.006 651.736 123.617 660.524 119.316C646.521 121.419 632.851 125.335 619.858 130.967L619.083 131.309L618.307 130.936C592.947 118.617 571.027 100.216 554.499 77.3709C537.97 54.5258 527.347 27.9464 523.575 0H1254.6Z" fill="#3F3D56"/>
<g opacity="0.15">
<path d="M523.575 0C527.347 27.9464 537.97 54.5258 554.498 77.3709C571.027 100.216 592.947 118.617 618.307 130.936L619.082 131.309L619.858 130.967C632.85 125.335 646.52 121.419 660.524 119.316C651.736 123.617 643.524 129.006 636.081 135.358L633.553 137.467L636.655 138.538C639.338 139.469 642.021 140.338 644.626 141.098C659.923 145.628 675.776 148.004 691.729 148.156C714.391 148.383 737.008 150.265 759.396 153.788C804.082 160.95 847.63 173.969 888.915 192.51C895.305 195.334 901.685 198.297 908.054 201.4C920.242 207.328 932.9 212.236 945.897 216.076C967.968 222.599 990.861 225.917 1013.87 225.927C1015.3 225.927 1016.74 225.911 1018.19 225.88C1018.71 225.88 1019.24 225.865 1019.78 225.849C1021.16 225.818 1022.56 225.772 1023.96 225.71C1025.46 225.648 1026.96 225.57 1028.47 225.477C1030.04 225.384 1031.62 225.275 1033.18 225.151C1034.25 225.058 1035.31 224.965 1036.38 224.857C1037.25 224.779 1038.1 224.701 1038.95 224.608C1040.04 224.5 1041.13 224.376 1042.21 224.236C1042.69 224.174 1043.17 224.112 1043.65 224.065C1044.88 223.91 1046.1 223.74 1047.33 223.569L1047.98 223.476C1049.41 223.274 1050.83 223.057 1052.25 222.824C1052.51 222.778 1052.77 222.731 1053.05 222.685C1054.21 222.498 1055.36 222.297 1056.53 222.08C1059.52 221.537 1062.48 220.947 1065.44 220.295C1066.17 220.14 1066.9 219.97 1067.62 219.799C1068.82 219.52 1070.03 219.241 1071.24 218.946C1072.73 218.573 1074.22 218.201 1075.7 217.798C1078.95 216.929 1082.21 215.983 1085.44 214.974C1086.68 214.602 1087.92 214.199 1089.14 213.795C1089.61 213.64 1090.07 213.469 1090.55 213.314C1091.47 213.02 1092.38 212.709 1093.3 212.368C1094.93 211.809 1096.56 211.22 1098.17 210.615C1099.15 210.243 1100.14 209.87 1101.12 209.482C1102.09 209.11 1103.09 208.707 1104.06 208.319C1106 207.528 1107.96 206.721 1109.88 205.868C1110.84 205.449 1111.8 205.03 1112.76 204.596C1113.72 204.161 1114.69 203.727 1115.63 203.277L1118.01 202.16C1118.32 202.005 1118.61 201.865 1118.92 201.71C1119.73 201.322 1120.52 200.934 1121.32 200.531C1123.19 199.616 1125.03 198.654 1126.88 197.676C1128.75 196.684 1130.61 195.66 1132.48 194.62C1134.31 193.581 1136.12 192.526 1137.92 191.44C1138.83 190.897 1139.73 190.354 1140.62 189.795C1141.39 189.314 1142.17 188.849 1142.93 188.353C1143.16 188.213 1143.39 188.058 1143.63 187.903C1144.4 187.422 1145.18 186.91 1145.95 186.413C1147.86 185.172 1149.74 183.9 1151.61 182.597C1152.34 182.085 1153.06 181.589 1153.79 181.077C1155.49 179.851 1157.2 178.61 1158.89 177.338C1159.73 176.702 1160.56 176.066 1161.4 175.43C1162.24 174.778 1163.06 174.127 1163.9 173.475C1164.72 172.823 1165.54 172.156 1166.36 171.489C1168.81 169.488 1171.23 167.44 1173.61 165.346C1174.4 164.648 1175.19 163.949 1175.98 163.236C1179.11 160.397 1182.18 157.48 1185.16 154.471C1185.92 153.71 1186.65 152.95 1187.39 152.19C1188.14 151.43 1188.87 150.67 1189.6 149.894C1190.33 149.118 1191.05 148.343 1191.77 147.551C1192.48 146.776 1193.2 145.985 1193.91 145.193C1140.53 170.514 1079.7 175.259 1023.04 158.52C1010.04 154.682 997.385 149.773 985.198 143.844C952.984 128.026 919.283 115.44 884.588 106.269C847.15 96.3919 808.643 91.1401 769.927 90.6314C769.586 90.6159 769.229 90.6159 768.888 90.6159C752.93 90.4502 737.073 88.0694 721.77 83.5416C719.165 82.7815 716.497 81.9127 713.814 80.9818L710.712 79.9114L713.225 77.8015C720.673 71.45 728.89 66.0607 737.683 61.7603C723.675 63.8626 710 67.7791 697.002 73.4111L696.226 73.7524L695.451 73.3801C662.946 57.5879 636.281 31.8981 619.284 0H523.575Z" fill="black"/>
</g>
<path d="M564.461 770.273L554.695 769.058L554.505 729.983L568.92 731.777L564.461 770.273Z" fill="#FFB8B8"/>
<path d="M619.023 745.734C618.539 746.322 618.053 746.904 617.56 747.488C616.581 748.654 615.586 749.812 614.586 750.958C614.083 751.532 613.574 752.107 613.069 752.675L613.076 752.693L613.041 752.712L613.03 752.722L612.156 753.276L609.583 750.119L608.396 748.665L606.718 746.606L603.645 742.839L587.464 723.003L599.73 715.239L600.915 717.12L600.921 717.118L601.507 718.05L612.504 735.436L614.75 738.991L614.82 739.098L616.168 741.22L617.333 743.059L618.631 745.115L619.023 745.734Z" fill="#FFB8B8"/>
<path d="M672.136 639.346C671.743 640.991 671.329 642.635 670.905 644.269C670.119 647.31 669.278 650.329 668.38 653.325C668.382 653.331 668.376 653.333 668.372 653.341C667.684 654.597 666.852 655.768 665.893 656.831C665.856 656.885 665.809 656.928 665.77 656.976C665.06 657.748 664.257 658.429 663.381 659.005C663.063 659.207 662.74 659.412 662.422 659.614C661.272 660.329 660.119 660.996 658.963 661.63C656.903 662.751 654.828 663.756 652.736 664.645C652.569 664.722 652.4 664.792 652.231 664.862C643.512 668.296 634.377 670.56 625.064 671.594C620.342 672.236 615.471 672.742 610.427 673.265C608.777 673.431 607.123 673.606 605.451 673.786C605.325 673.801 605.191 673.811 605.059 673.828C602.669 674.083 600.244 674.357 597.765 674.655C594.645 675.031 591.438 675.456 588.124 675.951L589.82 680.288C591.139 683.62 592.961 686.729 595.223 689.508C596.862 691.31 598.119 693.426 598.918 695.728C599.717 698.029 600.042 700.469 599.874 702.899L599.839 706.377C600.914 707.74 601.658 709.332 602.014 711.031C602.37 712.729 602.328 714.487 601.89 716.167L601.783 716.567L618.344 736.282L619.417 737.561L614.821 739.096L609.169 740.991L599.588 744.193L576.498 721.067L575.394 719.964L575.371 719.896L558.996 666.102C558.858 665.625 558.736 665.136 558.641 664.645C558.179 662.424 558.164 660.132 558.597 657.904C559.03 655.676 559.902 653.557 561.163 651.67C562.367 649.852 563.921 648.29 565.734 647.078C567.547 645.865 569.583 645.025 571.724 644.607L576.661 643.638L586.746 641.658L593.852 640.267L593.994 640.24L614.947 636.128L614.426 629.769L614.659 629.581L622.079 623.656L647.745 603.161L647.811 603.112L649.499 601.764L649.852 602.058C649.957 602.147 650.062 602.236 650.161 602.327C653.201 605.101 655.95 608.178 658.365 611.512C662.366 616.938 666.054 622.587 669.413 628.433C669.559 628.687 669.691 628.918 669.809 629.126L669.85 629.188C669.904 629.287 669.939 629.351 669.952 629.367C671.615 632.418 672.372 635.88 672.136 639.346Z" fill="#2F2E41"/>
<path d="M666.809 619.285C666.584 618.92 666.332 618.557 666.078 618.208C664.11 615.584 661.999 613.07 659.754 610.678C657.22 607.949 653.914 594.212 653.87 594.177L614.994 608.315L608.893 608.14L613.123 619.447L613.125 619.453L607.946 629.089L607.894 629.099L591.212 632.369L574.02 635.74L564.786 637.553C562.646 637.971 560.609 638.811 558.796 640.023C556.983 641.236 555.429 642.797 554.225 644.617C552.965 646.504 552.093 648.623 551.66 650.85C551.227 653.078 551.241 655.37 551.703 657.592C551.792 658.043 551.904 658.501 552.032 658.947L550.291 681.531C549.247 695.038 550.246 708.625 553.256 721.834L553.672 743.463L554.571 743.252L567.951 740.123L571.486 739.3L575.352 725.758C575.793 724.215 576.178 722.649 576.496 721.071C577.027 718.489 577.392 715.877 577.591 713.249L580.939 668.938C582.274 668.733 583.592 668.522 584.894 668.305C590.926 667.321 596.672 666.243 602.132 665.069C617.742 661.967 632.937 657.054 647.409 650.43C650.964 648.74 654.347 646.95 657.559 645.058C658.738 644.368 659.894 643.664 661.026 642.944C661.294 642.778 661.556 642.615 661.816 642.446C664.152 640.932 666.071 638.857 667.398 636.409C668.725 633.962 669.417 631.22 669.411 628.436C669.433 625.2 668.53 622.025 666.809 619.285Z" fill="#2F2E41"/>
<path d="M565.231 763.625L554.661 762.301L553.003 762.091L552.592 768.46L537.829 777.292C537.099 777.728 536.527 778.386 536.198 779.17C535.868 779.954 535.798 780.823 535.997 781.65C536.196 782.477 536.655 783.219 537.306 783.766C537.956 784.314 538.765 784.639 539.614 784.695L557.305 785.847L560.762 779.747L561.543 786.123L568.207 786.558L567.801 763.949L565.231 763.625Z" fill="#2F2E41"/>
<path d="M618.344 736.282L619.417 737.56L618.835 737.754L618.344 736.282Z" fill="#2F2E41"/>
<path d="M615.767 739.129L607.325 745.628L606 746.646L610.187 751.461L605.91 768.127C605.698 768.951 605.755 769.821 606.072 770.61C606.389 771.399 606.951 772.066 607.674 772.513C608.397 772.961 609.245 773.165 610.092 773.096C610.94 773.027 611.743 772.689 612.385 772.131L625.767 760.499L623.932 753.731L628.973 757.712L634.014 753.331L617.822 737.551L615.767 739.129Z" fill="#2F2E41"/>
<path d="M689.783 501.634C689.169 502.501 688.752 503.493 688.562 504.538C688.373 505.583 688.414 506.658 688.685 507.685C688.955 508.713 689.447 509.669 690.127 510.486C690.806 511.302 691.656 511.96 692.618 512.413L689.889 538.097L701.809 531.933L702.572 508.488C703.225 506.822 703.245 504.975 702.627 503.296C702.009 501.617 700.797 500.224 699.221 499.379C697.644 498.534 695.813 498.297 694.073 498.713C692.334 499.128 690.807 500.168 689.783 501.634Z" fill="#FFB8B8"/>
<path d="M631.521 535.287C633.135 538.371 635.148 541.23 637.508 543.788C644.301 551.049 665.89 566.221 680.035 573.544C686.378 576.817 690.89 578.014 692.597 577.236C700.748 573.524 708.11 512.466 703.5 511.954L691.093 522.814V525.916L685.463 550.77C685.463 550.77 684.207 549.249 682.066 546.813C675.087 538.917 663.222 524.334 649.217 518.16C644.828 526.211 632.374 534.325 632.374 534.325C632.374 534.325 632.048 534.666 631.521 535.287Z" fill="#BB9331"/>
<path d="M622.076 685.708H665.215L665.482 683.686L708.965 354.571C709.552 350.131 708.812 345.616 706.84 341.595C704.867 337.574 701.75 334.226 697.88 331.973C694.01 329.72 689.56 328.662 685.09 328.933C680.621 329.204 676.331 330.791 672.761 333.494L675.571 337.203C678.409 335.054 681.82 333.793 685.373 333.578C688.926 333.363 692.464 334.205 695.54 335.996C698.617 337.787 701.095 340.449 702.663 343.646C704.231 346.843 704.819 350.432 704.352 353.962L661.136 681.054H622.076V685.708Z" fill="#3F3D56"/>
<path d="M173.478 225.856C150.607 225.856 132.067 207.31 132.067 184.433C132.067 161.555 150.607 143.01 173.478 143.01C196.349 143.01 214.89 161.555 214.89 184.433C214.89 207.31 196.349 225.856 173.478 225.856Z" fill="#E9C46A"/>
<path d="M80.7968 164.818C81.9647 160.988 84.227 157.582 87.3051 155.022C90.3831 152.461 94.1427 150.857 98.1208 150.406C98.2137 150.398 98.307 150.398 98.3999 150.406C98.5114 150.371 98.6256 150.345 98.7412 150.328C112.607 148.529 128.023 152.904 138.399 162.429C142.251 165.909 145.331 170.158 147.441 174.902C149.364 172.274 151.899 170.155 154.826 168.728C157.753 167.3 160.983 166.608 164.237 166.711C168.435 166.988 172.444 168.554 175.719 171.194C178.994 173.834 181.376 177.421 182.539 181.464C182.666 181.958 182.631 182.481 182.439 182.953C182.246 183.425 181.905 183.823 181.468 184.086C180.221 185.153 178.738 185.908 177.141 186.289C173.714 187.018 170.255 187.685 166.797 188.29C160.034 189.469 153.236 190.426 146.402 191.16C141.888 191.641 137.365 192.024 132.831 192.308C123.463 192.898 114.049 193.038 104.666 192.743C100.013 192.588 95.5463 192.433 91.2967 190.385C88.2 188.861 85.5539 186.557 83.6195 183.698C81.7984 180.949 80.6018 177.833 80.1142 174.571C79.6265 171.31 79.8595 167.98 80.7968 164.818Z" fill="#E6E6E6"/>
<path d="M165.99 225.167C166.069 223.431 166.36 221.712 166.859 220.047C168.032 216.217 170.298 212.813 173.378 210.253C176.458 207.692 180.219 206.088 184.198 205.635C184.286 205.627 184.374 205.627 184.462 205.635C184.579 205.602 184.698 205.576 184.819 205.557C192.492 204.617 200.28 205.418 207.602 207.9C218.862 211.67 228.741 219.272 233.503 230.131C235.428 227.502 237.966 225.381 240.895 223.954C243.825 222.527 247.058 221.835 250.315 221.94C254.512 222.217 258.522 223.783 261.797 226.423C265.072 229.064 267.453 232.65 268.616 236.693C268.737 237.188 268.698 237.707 268.506 238.178C268.314 238.649 267.978 239.047 267.546 239.315C266.296 240.38 264.814 241.134 263.219 241.518C259.776 242.247 256.333 242.915 252.858 243.52C246.096 244.699 239.303 245.655 232.479 246.39C218.615 247.878 204.665 248.407 190.728 247.972C186.09 247.817 181.608 247.662 177.358 245.614C174.266 244.09 171.625 241.785 169.697 238.927C166.978 234.875 165.675 230.037 165.99 225.167Z" fill="#E6E6E6"/>
<path d="M150.617 326.388C151.111 328.546 150.764 330.812 149.647 332.724C148.993 333.696 148.034 334.423 146.922 334.791C145.81 335.159 144.607 335.147 143.503 334.757C139.165 333.41 134.885 331.832 130.584 330.37C129.997 330.194 129.5 329.798 129.198 329.264C128.895 328.731 128.81 328.102 128.959 327.507C129.128 326.915 129.523 326.414 130.058 326.11C130.593 325.806 131.226 325.724 131.821 325.882L142.569 329.535C143.379 329.811 144.187 330.124 145.013 330.35C145.1 330.374 145.415 330.443 145.398 330.442C145.359 330.438 145.114 330.464 145.386 330.446C145.541 330.399 145.54 330.409 145.382 330.476L145.588 330.359C145.4 330.515 145.611 330.338 145.675 330.273C145.732 330.215 145.9 329.984 145.77 330.174C145.863 330.038 145.945 329.895 146.014 329.746C145.9 329.997 146.114 329.376 146.129 329.289C146.216 328.319 146.16 327.342 145.964 326.388C145.967 325.771 146.213 325.181 146.648 324.745C147.084 324.31 147.674 324.064 148.29 324.061C148.902 324.076 149.485 324.326 149.918 324.759C150.351 325.192 150.601 325.775 150.617 326.388Z" fill="#3F3D56"/>
<path d="M323.828 334.559L312.362 349.021C310.903 350.861 307.775 348.869 308.473 346.757C309.903 342.437 304.969 340.03 301.564 339.319C297.045 338.376 292.512 338.529 288.224 336.586C285.501 335.352 287.863 331.34 290.573 332.568C295.588 334.84 301.436 333.798 306.514 336.008C311.053 337.984 314.642 342.91 312.96 347.994L309.072 345.73L320.538 331.268C320.977 330.835 321.567 330.593 322.183 330.593C322.799 330.593 323.39 330.835 323.828 331.268C324.252 331.711 324.488 332.3 324.488 332.913C324.488 333.526 324.252 334.116 323.828 334.559L323.828 334.559Z" fill="#3F3D56"/>
<path d="M347.092 165.459L335.626 179.921C334.167 181.761 331.039 179.769 331.738 177.657C333.167 173.337 328.233 170.93 324.828 170.219C320.31 169.275 315.776 169.429 311.488 167.486C308.765 166.252 311.128 162.24 313.837 163.467C318.852 165.74 324.7 164.698 329.778 166.908C334.317 168.884 337.906 173.81 336.224 178.894L332.336 176.63L343.802 162.168C344.241 161.735 344.832 161.493 345.447 161.493C346.063 161.493 346.654 161.735 347.092 162.168C347.516 162.611 347.752 163.2 347.752 163.813C347.752 164.426 347.516 165.016 347.092 165.459L347.092 165.459Z" fill="#3F3D56"/>
</g>
<defs>
<clipPath id="clip0_29_217">
<rect width="1295" height="839" fill="white" transform="matrix(-1 0 0 1 1295 0)"/>
</clipPath>
</defs>
</svg>
