<svg width="885" height="757" viewBox="0 0 885 757" fill="none" xmlns="http://www.w3.org/2000/svg">
<g opacity="0.85" clip-path="url(#clip0_32_360)">
<path d="M677.024 476.086C676.121 473.323 669.281 474.539 668.624 472.068C667.97 469.606 674.533 467.541 679.567 460.602C680.475 459.35 686.196 451.465 684.002 448.148C679.843 441.861 650.908 457.519 643.962 448.732C642.438 446.804 641.811 443.494 637.27 437.333C635.463 434.882 634.304 433.699 632.92 433.734C630.955 433.783 630.252 436.242 627.164 440.697C622.532 447.377 620.861 446.539 617.81 452.012C615.545 456.076 615.277 458.672 613.643 458.825C611.332 459.042 610.377 453.983 607.553 453.786C604.671 453.586 601.788 458.585 600.358 462.491C597.675 469.82 599.337 475.421 599.705 481.004C600.105 487.071 599.165 495.952 592.576 507.351L530.426 606.415C543.773 586.22 581.661 531.15 596.926 510.951C601.333 505.119 606.069 499.264 613.358 498.162C620.375 497.102 628.914 500.575 640.832 500.373C642.223 500.349 646.097 500.234 647.039 498.18C647.818 496.482 645.884 495.006 646.588 493.41C647.531 491.269 651.777 492.187 657.564 490.765C661.644 489.762 664.416 488.106 666.8 486.681C667.519 486.252 678.225 479.763 677.024 476.086L677.024 476.086V476.086Z" fill="#F2F2F2"/>
<path d="M514.24 499.215C512.624 498.86 511.247 502.57 509.846 502.18C508.449 501.79 509.33 497.972 507.378 493.498C507.026 492.691 504.808 487.607 502.548 487.727C498.263 487.955 497.596 506.681 491.282 507.556C489.896 507.748 488.091 507.101 483.758 507.553C482.034 507.733 481.119 507.961 480.737 508.651C480.195 509.63 481.198 510.684 482.492 513.486C484.434 517.688 483.54 518.266 485.345 521.344C486.685 523.628 487.881 524.509 487.485 525.355C486.924 526.552 484.167 525.562 483.256 526.892C482.326 528.249 483.946 531.107 485.45 532.936C488.271 536.368 491.499 537.169 494.344 538.599C497.436 540.153 501.522 543.177 505.213 549.701L535.881 608.801C529.824 596.42 513.739 561.927 508.234 548.603C506.645 544.757 505.138 540.742 506.701 536.846C508.206 533.094 512.373 529.903 515.713 523.993C516.103 523.303 517.164 521.368 516.428 520.312C515.82 519.44 514.537 519.964 513.957 519.158C513.179 518.076 514.855 516.257 515.827 513.005C516.512 510.712 516.499 508.873 516.488 507.292C516.485 506.815 516.391 499.686 514.24 499.214L514.24 499.215Z" fill="#F2F2F2"/>
<path d="M544.836 513.635L545.8 504.731L546.391 504.171C549.126 501.585 550.837 498.845 551.479 496.025C551.581 495.577 551.661 495.123 551.742 494.661C552.062 492.831 552.459 490.555 554.218 488.191C555.203 486.874 557.808 483.898 560.494 484.937C561.219 485.209 561.708 485.679 562.048 486.178C562.133 486.091 562.221 486.005 562.314 485.911C563.475 484.783 564.286 484.37 565.068 483.972C565.669 483.666 566.29 483.351 567.339 482.511C567.8 482.142 568.169 481.811 568.48 481.532C569.422 480.69 570.628 479.704 572.279 480.095C574.03 480.574 574.63 482.244 575.028 483.35C575.739 485.323 575.958 486.68 576.103 487.579C576.156 487.908 576.216 488.278 576.262 488.398C576.645 489.365 581.455 489.614 583.265 489.719C587.333 489.94 590.853 490.131 591.7 492.917C592.307 494.911 591.041 497.086 587.828 499.552C586.828 500.32 585.827 500.849 584.955 501.245C585.492 501.752 585.919 502.442 585.945 503.381C586.004 505.604 583.724 507.311 579.17 508.461C578.038 508.75 576.516 509.132 574.524 509.036C573.586 508.989 572.764 508.846 572.063 508.711C571.959 509.111 571.767 509.526 571.422 509.92C570.408 511.081 568.771 511.376 566.549 510.721C564.096 510.038 562.158 509.108 560.448 508.29C558.954 507.578 557.666 506.969 556.585 506.803C554.575 506.522 552.7 507.763 550.457 509.416L544.836 513.635H544.836V513.635Z" fill="#F2F2F2"/>
<path d="M560.879 462.92L552.025 464.246L551.335 463.815C548.14 461.824 545.057 460.863 542.167 460.958C541.708 460.972 541.25 461.011 540.782 461.05C538.931 461.204 536.63 461.397 533.898 460.294C532.375 459.675 528.836 457.91 529.16 455.047C529.239 454.276 529.57 453.683 529.966 453.228C529.86 453.167 529.755 453.105 529.641 453.038C528.255 452.201 527.65 451.52 527.067 450.865C526.618 450.361 526.156 449.84 525.078 449.037C524.605 448.685 524.191 448.412 523.843 448.182C522.789 447.484 521.53 446.567 521.489 444.87C521.508 443.054 522.971 442.05 523.939 441.384C525.666 440.195 526.922 439.639 527.756 439.271C528.06 439.137 528.403 438.984 528.507 438.91C529.344 438.294 528.366 433.576 528.008 431.798C527.189 427.805 526.481 424.35 528.961 422.824C530.735 421.731 533.158 422.404 536.358 424.887C537.354 425.661 538.12 426.495 538.723 427.238C539.078 426.591 539.636 426.002 540.538 425.739C542.673 425.118 544.9 426.891 547.168 431.007C547.734 432.029 548.49 433.405 548.902 435.357C549.095 436.276 549.164 437.108 549.212 437.82C549.625 437.82 550.075 437.9 550.544 438.134C551.923 438.821 552.624 440.33 552.555 442.646C552.516 445.194 552.108 447.305 551.751 449.168C551.442 450.794 551.18 452.195 551.293 453.283C551.531 455.3 553.207 456.799 555.374 458.55L560.879 462.92H560.879Z" fill="#F2F2F2"/>
<path d="M562.072 436.322L563.036 427.418L563.627 426.859C566.363 424.273 568.074 421.533 568.716 418.713C568.818 418.264 568.897 417.811 568.978 417.349C569.298 415.518 569.695 413.242 571.455 410.879C572.439 409.562 575.044 406.585 577.73 407.625C578.455 407.897 578.944 408.367 579.284 408.865C579.37 408.779 579.457 408.693 579.551 408.599C580.711 407.471 581.523 407.058 582.305 406.66C582.905 406.353 583.526 406.038 584.576 405.198C585.036 404.83 585.405 404.498 585.716 404.22C586.659 403.378 587.864 402.392 589.516 402.782C591.266 403.261 591.866 404.932 592.265 406.038C592.976 408.01 593.195 409.367 593.34 410.267C593.392 410.595 593.452 410.966 593.498 411.086C593.881 412.052 598.691 412.302 600.501 412.406C604.569 412.627 608.089 412.818 608.936 415.605C609.543 417.599 608.277 419.773 605.065 422.24C604.064 423.007 603.063 423.537 602.192 423.932C602.728 424.439 603.155 425.129 603.181 426.068C603.24 428.292 600.961 429.998 596.406 431.148C595.275 431.437 593.752 431.82 591.76 431.723C590.822 431.677 590 431.533 589.3 431.399C589.195 431.798 589.004 432.213 588.658 432.607C587.645 433.768 586.008 434.063 583.786 433.409C581.333 432.725 579.394 431.795 577.684 430.978C576.19 430.266 574.902 429.657 573.821 429.49C571.811 429.209 569.937 430.451 567.693 432.103L562.072 436.322H562.072V436.322Z" fill="#F2F2F2"/>
<path d="M533.364 606.922L531.799 605.375L531.827 603.176L531.799 605.375L529.623 605.145C529.634 604.94 529.619 604.462 529.603 603.714C529.52 599.618 529.26 587.152 530.995 567.998C532.207 554.628 534.231 541.055 537.012 527.652C539.798 514.228 542.69 504.239 545.012 496.211C546.765 490.156 548.534 484.413 550.261 478.819C554.869 463.872 559.221 449.754 561.915 433.65C562.519 430.055 563.771 422.571 561.207 413.739C559.719 408.616 557.172 403.795 553.634 399.412L557.058 396.645C560.963 401.488 563.78 406.828 565.432 412.516C568.275 422.308 566.911 430.462 566.255 434.38C563.512 450.769 559.117 465.023 554.464 480.113C552.746 485.687 550.982 491.405 549.237 497.436C546.936 505.389 544.07 515.291 541.321 528.543C538.571 541.786 536.572 555.192 535.374 568.394C533.662 587.307 533.919 599.587 534.003 603.622C534.047 605.776 534.056 606.227 533.364 606.922V606.922Z" fill="#F2F2F2"/>
<path d="M544.238 404.48C544.062 404.44 543.885 404.396 543.707 404.344C540.095 403.331 537.198 400.386 535.093 395.592C534.108 393.338 533.876 390.966 533.412 386.235C533.339 385.505 533.018 381.814 533.413 376.922C533.67 373.726 534.014 372.442 534.883 371.434C535.849 370.311 537.15 369.668 538.524 369.345C538.562 368.921 538.7 368.508 538.974 368.115C540.105 366.488 541.998 367.157 543.025 367.505C543.543 367.691 544.188 367.927 544.913 368.049C546.053 368.246 546.734 368.046 547.764 367.747C548.75 367.461 549.976 367.105 551.67 367.135C555.014 367.181 557.489 368.684 558.305 369.179C562.603 371.763 564.087 375.885 565.805 380.658C566.146 381.615 567.279 385.073 567.542 389.526C567.733 392.739 567.312 394.054 566.829 394.995C565.844 396.928 564.335 397.824 560.589 399.709C556.676 401.685 554.713 402.674 553.103 403.182C549.357 404.358 547.005 405.097 544.238 404.48L544.238 404.48H544.238Z" fill="#F2F2F2"/>
<path d="M149.886 386.321C146.983 386.199 145.726 393.034 143.182 392.784C140.648 392.535 141.014 385.661 136.28 378.514C135.427 377.225 130.047 369.102 126.174 369.996C118.831 371.691 123.356 404.29 112.696 407.72C110.357 408.473 107.038 407.902 99.6793 409.999C96.7519 410.833 95.2382 411.504 94.7859 412.814C94.1442 414.673 96.2003 416.193 99.2891 420.647C103.922 427.327 102.551 428.599 106.607 433.375C109.618 436.921 111.955 438.082 111.526 439.666C110.919 441.907 105.848 441.03 104.675 443.608C103.478 446.238 107.148 450.691 110.304 453.399C116.226 458.48 122.053 458.885 127.409 460.496C133.229 462.246 141.215 466.237 149.579 476.404L220.558 569.341C206.326 549.76 168.038 494.968 154.473 473.589C150.557 467.417 146.733 460.928 148.255 453.712C149.72 446.765 155.963 439.981 159.948 428.742C160.413 427.429 161.662 423.759 160.069 422.157C158.752 420.832 156.693 422.128 155.445 420.909C153.771 419.275 156.118 415.618 156.813 409.698C157.304 405.523 156.724 402.345 156.225 399.612C156.075 398.788 153.75 386.483 149.886 386.321L149.886 386.321H149.886Z" fill="#F2F2F2"/>
<path d="M114.523 546.959C113.625 548.349 116.616 550.939 115.759 552.116C114.906 553.288 111.639 551.125 106.767 551.387C105.888 551.434 100.351 551.732 99.6722 553.892C98.3852 557.987 115.683 565.171 114.291 571.394C113.985 572.76 112.747 574.225 111.653 578.443C111.217 580.122 111.11 581.059 111.622 581.659C112.349 582.51 113.688 581.939 116.764 581.707C121.378 581.36 121.607 582.4 125.12 581.787C127.728 581.331 128.972 580.519 129.625 581.187C130.55 582.131 128.656 584.368 129.583 585.688C130.528 587.034 133.771 586.517 136.01 585.749C140.211 584.307 142.092 581.563 144.427 579.398C146.965 577.045 151.227 574.275 158.629 573.102L224.703 565.065C210.99 566.404 173.062 569.395 158.659 569.887C154.501 570.029 150.215 570.034 147.114 567.205C144.128 564.481 142.601 559.458 138.237 554.258C137.728 553.651 136.288 551.979 135.042 552.299C134.012 552.563 134.053 553.948 133.095 554.21C131.811 554.56 130.694 552.352 127.99 550.303C126.083 548.857 124.357 548.225 122.872 547.682C122.425 547.518 115.717 545.109 114.523 546.959L114.523 546.959H114.523Z" fill="#F2F2F2"/>
<path d="M138.74 523.341L130.741 519.319L130.425 518.569C128.961 515.1 126.995 512.536 124.58 510.947C124.196 510.694 123.799 510.461 123.395 510.224C121.793 509.283 119.802 508.113 118.205 505.637C117.317 504.253 115.442 500.769 117.356 498.616C117.865 498.032 118.477 497.738 119.062 497.594C119.011 497.484 118.961 497.372 118.906 497.252C118.257 495.769 118.154 494.864 118.055 493.992C117.979 493.321 117.901 492.63 117.483 491.352C117.299 490.791 117.118 490.329 116.966 489.941C116.508 488.762 116.007 487.287 116.951 485.877C118.012 484.404 119.787 484.427 120.962 484.441C123.058 484.465 124.404 484.735 125.298 484.915C125.624 484.981 125.991 485.054 126.12 485.053C127.159 485.032 129.077 480.613 129.809 478.954C131.441 475.219 132.853 471.987 135.758 472.17C137.838 472.299 139.43 474.247 140.614 478.121C140.982 479.328 141.127 480.451 141.193 481.406C141.855 481.082 142.65 480.923 143.539 481.228C145.641 481.951 146.44 484.685 145.922 489.355C145.796 490.517 145.621 492.077 144.833 493.91C144.461 494.773 144.038 495.493 143.667 496.102C144.005 496.34 144.326 496.665 144.574 497.127C145.306 498.483 145.009 500.12 143.618 501.973C142.118 504.032 140.569 505.523 139.204 506.839C138.014 507.99 136.993 508.983 136.459 509.938C135.492 511.723 135.997 513.915 136.759 516.596L138.74 523.341L138.74 523.341Z" fill="#F2F2F2"/>
<path d="M96.8784 490.544L95.0184 499.304L94.3736 499.801C91.3905 502.097 89.4109 504.649 88.487 507.39C88.34 507.826 88.2154 508.269 88.0881 508.72C87.5844 510.509 86.9588 512.733 84.9693 514.906C83.8565 516.117 80.9641 518.814 78.3969 517.508C77.7032 517.164 77.2639 516.647 76.9762 516.116C76.8825 516.194 76.7868 516.271 76.6844 516.354C75.4158 517.359 74.5664 517.688 73.7483 518.005C73.1195 518.249 72.4704 518.499 71.3409 519.229C70.8454 519.548 70.4449 519.841 70.1075 520.087C69.0847 520.829 67.7854 521.688 66.182 521.132C64.4888 520.478 64.0608 518.755 63.7765 517.615C63.2686 515.58 63.1879 514.208 63.1348 513.298C63.1162 512.966 63.0934 512.592 63.06 512.468C62.7766 511.468 58.0167 510.732 56.2268 510.445C52.2019 509.813 48.7192 509.266 48.159 506.408C47.7564 504.363 49.2359 502.328 52.6817 500.2C53.7549 499.537 54.8039 499.112 55.7111 498.807C55.229 498.248 54.8738 497.518 54.9429 496.581C55.1094 494.363 57.5498 492.897 62.197 492.214C63.3522 492.041 64.9053 491.814 66.8773 492.112C67.8059 492.253 68.6089 492.48 69.2924 492.684C69.4367 492.297 69.6693 491.904 70.0528 491.547C71.1786 490.495 72.8371 490.367 74.9815 491.243C77.3528 492.172 79.1869 493.293 80.8057 494.28C82.2199 495.139 83.4397 495.875 84.4982 496.15C86.4697 496.634 88.4602 495.588 90.8592 494.171L96.8784 490.543L96.8784 490.544H96.8784Z" fill="#F2F2F2"/>
<path d="M72.3938 480.109L64.3953 476.087L64.0787 475.337C62.6154 471.868 60.6495 469.305 58.234 467.716C57.8501 467.463 57.4532 467.23 57.0491 466.992C55.4472 466.051 53.4557 464.882 51.8589 462.405C50.9707 461.021 49.0962 457.538 51.0105 455.385C51.519 454.801 52.1306 454.507 52.7165 454.363C52.6653 454.253 52.6152 454.141 52.5603 454.02C51.9106 452.538 51.808 451.632 51.7093 450.76C51.633 450.09 51.5554 449.398 51.1366 448.12C50.953 447.56 50.7718 447.098 50.6199 446.709C50.1617 445.531 49.6609 444.056 50.605 442.645C51.6663 441.172 53.4406 441.195 54.6156 441.209C56.7117 441.234 58.0585 441.504 58.9517 441.683C59.2777 441.75 59.6454 441.822 59.7741 441.822C60.8128 441.801 62.7315 437.381 63.4632 435.722C65.0948 431.987 66.5068 428.756 69.4123 428.939C71.4917 429.068 73.084 431.016 74.2681 434.89C74.6361 436.097 74.7815 437.22 74.8465 438.175C75.5091 437.85 76.3045 437.692 77.1931 437.996C79.2954 438.72 80.0943 441.453 79.576 446.124C79.4502 447.286 79.2751 448.846 78.4868 450.679C78.1148 451.542 77.6924 452.261 77.3212 452.871C77.6586 453.109 77.9802 453.433 78.2282 453.895C78.9599 455.252 78.6629 456.889 77.272 458.742C75.7725 460.801 74.2229 462.291 72.8584 463.608C71.6685 464.758 70.6473 465.752 70.113 466.706C69.1456 468.492 69.6515 470.683 70.413 473.364L72.3939 480.109L72.3938 480.109H72.3938Z" fill="#F2F2F2"/>
<path d="M222.062 566.766L220.065 567.69L218.016 566.893L220.065 567.69L219.088 569.649C218.9 569.567 218.446 569.413 217.741 569.166C213.877 567.81 202.114 563.687 184.789 555.352C172.696 549.533 160.698 542.882 149.123 535.581C137.531 528.268 129.192 522.06 122.489 517.072C117.434 513.309 112.676 509.64 108.044 506.062C95.6646 496.508 83.9703 487.486 69.8367 479.32C66.6824 477.495 60.1149 473.701 50.9475 473.01C45.6304 472.609 40.2239 473.307 34.8813 475.088L33.4902 470.91C39.392 468.947 45.3781 468.178 51.2819 468.622C61.4462 469.388 68.6024 473.523 72.0407 475.509C86.4237 483.82 98.2298 492.931 110.728 502.577C115.345 506.14 120.081 509.795 125.115 513.542C131.756 518.485 140.023 524.638 151.466 531.856C162.902 539.072 174.754 545.64 186.694 551.387C203.801 559.616 215.389 563.676 219.195 565.011C221.227 565.724 221.653 565.874 222.062 566.766L222.062 566.765L222.062 566.766Z" fill="#F2F2F2"/>
<path d="M36.3349 485.667C36.2365 485.818 36.1332 485.969 36.0216 486.117C33.8081 489.147 30.036 490.83 24.811 491.123C22.3556 491.257 20.0531 490.644 15.4611 489.421C14.7526 489.234 11.1842 488.242 6.74275 486.159C3.84003 484.798 2.75832 484.026 2.11911 482.859C1.40582 481.56 1.25932 480.116 1.43854 478.715C1.05532 478.532 0.716355 478.257 0.445255 477.862C-0.68263 476.233 0.606768 474.693 1.29241 473.852C1.64774 473.433 2.09492 472.911 2.46342 472.274C3.0473 471.275 3.09808 470.567 3.17955 469.497C3.25676 468.473 3.35275 467.199 3.97453 465.622C5.18868 462.505 7.46308 460.713 8.21213 460.121C12.1368 456.998 16.516 457.052 21.5864 457.114C22.6017 457.13 26.2361 457.28 30.4977 458.592C33.5723 459.539 34.6562 460.394 35.3675 461.176C36.8323 462.776 37.1427 464.504 37.596 468.674C38.0751 473.033 38.313 475.219 38.2249 476.906C38.0143 480.828 37.8821 483.29 36.3348 485.667L36.3349 485.667H36.3349Z" fill="#F2F2F2"/>
<path d="M86.6689 611.497C86.6689 612.202 87.6566 612.768 88.8864 612.768H795.238C796.467 612.768 797.455 612.202 797.455 611.497C797.455 610.793 796.467 610.227 795.238 610.227H88.8864C87.6566 610.227 86.6689 610.793 86.6689 611.497Z" fill="#CCCCCC"/>
<path d="M351.348 194.557C370.175 194.557 385.437 179.288 385.437 160.454C385.437 141.619 370.175 126.35 351.348 126.35C332.522 126.35 317.26 141.619 317.26 160.454C317.26 179.288 332.522 194.557 351.348 194.557Z" fill="#E9C46A"/>
<path d="M505.037 605.778C505.23 607.408 505.285 608.927 505.175 610.419H423.187C422.442 608.927 421.807 607.38 421.254 605.778C411.23 576.963 427.716 529.004 406.812 457.893C391.293 405.126 362.325 363.852 348.821 344.624C332.225 320.976 313.42 299.151 291.632 264.287C286.91 256.745 282.05 248.567 277.024 239.644C275.339 236.66 255.926 202.044 257.694 200.967C258.522 200.469 263.658 207.459 265.398 209.807C280.752 230.582 289.671 239.671 302.457 254.617C310.216 263.679 319.384 274.868 332.253 292.134C365.252 336.364 381.738 358.465 387.482 375.014C389.001 379.434 397.092 403.358 412.335 433.029C420.122 448.168 424.016 455.738 426.142 455.13C432.162 453.39 424.043 390.705 398.528 328.049C394.164 317.385 390.906 310.561 384.72 297.659C374.669 276.608 318.694 159.61 277.548 89.5767C272.384 80.7638 267.442 72.7244 262.885 65.6797C262.001 64.3537 261.145 63.0551 260.317 61.8121C254.573 53.2478 249.492 46.4792 245.267 42.1144C243.03 39.7937 237.342 33.2185 225.937 20.0132C221.408 14.7641 218.094 10.8688 215.857 8.0232C215.526 7.6089 215.222 7.19443 214.974 6.83528C212.268 3.29918 211.494 1.58618 212.13 0.674626C213.041 -0.623906 216.548 0.122068 220.386 1.47573C220.801 1.61383 221.242 1.77958 221.657 1.94533C225.826 3.49241 230.051 5.50925 231.46 6.19992C244.383 12.4159 257.003 23.5493 268.684 36.7825C273.02 41.6722 277.189 46.8384 281.221 52.1428C294.2 69.2711 305.522 87.919 314.082 103.252C324.576 122.148 330.872 136.044 330.872 136.044C360.171 200.773 392.673 274.812 394.385 274.177C396.263 273.486 360.226 181.324 349.733 131.265C346.226 114.496 345.591 102.451 350.202 100.13C350.368 100.047 350.533 99.9643 350.727 99.9089C351.445 99.6602 352.108 99.6879 352.467 99.7155C352.467 99.7155 356.747 99.163 361.248 100.13C366.854 101.346 373.233 116.954 379.446 138.862C395.6 195.331 410.954 293.515 410.954 293.515C426.308 391.728 449.614 471.209 455.137 470.325C458.202 469.828 453.812 445.157 457.899 404.021C460.771 375.179 464.029 376.063 474.467 323.905C491.036 241.163 499.32 199.806 499.32 199.585C499.238 197.845 499.017 194.336 499.541 190.69C500.094 186.739 501.502 182.595 504.843 180.247C509.925 176.655 518.098 178.202 521.412 180.247C524.063 181.904 525.416 184.943 525.72 189.308C527.542 216.769 488.109 296.389 474.467 404.021C467.674 457.644 463.946 486.901 474.467 525.578C484.878 563.924 503.021 588.345 505.037 605.778L505.037 605.778Z" fill="#CCCCCC"/>
<path d="M641.387 597.319L648.341 575.848L711.71 603.637L706.999 618.187L641.387 597.319Z" fill="#A0616A"/>
<path d="M692.042 593.902L692.537 602.487L696.96 604.195C696.96 604.195 691.162 603.968 686.38 612.98L690.227 615.772C690.227 615.772 693.008 621.068 700.854 623.393L722.146 628.898L724.747 621.711L711.027 615.057C711.027 615.057 708.574 611.845 727.358 608.741C727.358 608.741 733.699 607.372 734.517 589.946C734.629 587.551 733.223 585.311 730.978 584.47C729.739 584.007 728.413 584.046 727.404 585.434C724.835 588.967 724.662 593.324 720.534 594.646C716.406 595.968 692.042 593.902 692.042 593.902H692.042Z" fill="#2F2E41"/>
<path d="M602.467 644.502L611.016 623.614L672.116 656.093L666.324 670.247L602.467 644.502Z" fill="#A0616A"/>
<path d="M653.236 644.905L653.083 653.504L657.366 655.539C657.366 655.539 651.601 654.876 646.155 663.503L649.781 666.577C649.781 666.577 652.156 672.067 659.806 674.976L680.623 682.067L683.757 675.096L670.576 667.429C670.576 667.429 668.372 664.042 687.336 662.36C687.336 662.36 693.762 661.472 695.887 644.157C696.179 641.777 694.945 639.437 692.77 638.43C691.57 637.875 690.244 637.814 689.133 639.122C686.307 642.451 685.807 646.783 681.591 647.791C677.376 648.799 653.236 644.905 653.236 644.905Z" fill="#2F2E41"/>
<path d="M491.807 418.688C494.242 421.04 500.509 415.898 500.741 419.276C500.974 422.654 495.169 434.522 493.079 437.185C492.04 438.509 490.766 439.635 489.738 440.967C488.71 442.3 487.918 443.934 488.081 445.609C488.365 448.525 491.312 450.452 492.303 453.208C493.457 456.418 491.745 459.888 490.041 462.843C488.572 465.39 487.047 467.949 484.96 470.019C482.872 472.09 480.133 473.651 477.196 473.748C473.455 473.872 470.067 471.675 467.083 469.416C464.214 467.243 461.426 464.902 459.253 462.033C457.08 459.164 455.544 455.709 455.463 452.11C455.362 447.596 457.566 443.262 460.647 439.963C463.729 436.664 467.638 434.267 471.581 432.07C478.222 428.369 485.11 425.114 492.184 422.333" fill="#2F2E41"/>
<path d="M479.208 459.157C491.033 459.157 500.619 449.566 500.619 437.736C500.619 425.906 491.033 416.316 479.208 416.316C467.383 416.316 457.797 425.906 457.797 437.736C457.797 449.566 467.383 459.157 479.208 459.157Z" fill="#A0616A"/>
<path d="M510.524 498.369L532.767 536.386L574.407 558.403L563.588 568.451L523.111 553.177L495.079 517.158L497.35 499.635L510.524 498.369Z" fill="#A0616A"/>
<path d="M464.714 462.089L484.059 467.151L483.781 476.444L500.178 504.468C500.178 504.468 515.689 522.258 502.368 535.163L510.507 544.317L455.335 567.346L431.086 498.95L453.204 472.541L464.714 462.089V462.089Z" fill="#BB9331"/>
<path d="M480.326 478.467C480.326 478.467 492.004 465.132 501.07 477.456C510.136 489.78 514.652 503.84 514.652 503.84L493.259 514.048L480.326 478.467Z" fill="#BB9331"/>
<path d="M451.181 564.21C451.181 564.21 499.402 536.436 509.234 541.35L527.796 564.354L545.229 564.818L621.21 556.893L658.891 579.924L642.899 598.57L616.948 585.926L578.431 599.555C578.431 599.555 592.48 601.183 592.927 610.666L622.829 626.1L601.883 645.791L561.195 624.608C561.195 624.608 491.478 620.461 469.838 596.921C448.199 573.382 451.181 564.211 451.181 564.211V564.21Z" fill="#2F2E41"/>
<path d="M465.624 454.131L468.783 447.641C468.783 447.641 492.636 425.784 499.562 432.864L500.354 442.145C500.354 442.145 504.618 441.505 503.312 435.309C502.006 429.113 504.517 431.819 504.517 431.819C504.517 431.819 510.019 430.917 505.949 426.34C501.879 421.763 501.837 412.971 487.927 416.941C480.2 419.147 470.539 423.916 463.476 427.721C455.549 431.991 453.111 442.467 458.699 449.53C460.369 451.641 462.611 453.343 465.624 454.131V454.131Z" fill="#2F2E41"/>
<path d="M588.466 577.085C591.472 572.834 588.571 565.61 581.986 560.948C575.401 556.286 567.625 555.952 564.619 560.203C561.612 564.453 564.514 571.678 571.099 576.34C577.684 581.001 585.459 581.335 588.466 577.085Z" fill="#A0616A"/>
<path d="M542.438 460.923L544.573 467.33H542.438C542.438 467.33 545.107 481.746 536.568 483.881C528.029 486.017 520.15 472.402 520.15 472.402L516.288 474.271C516.288 474.271 519.49 490.288 507.749 492.424C496.008 494.559 491.739 480.678 491.739 480.678L463.987 482.813L465.054 474.271L490.196 476.785C490.196 476.785 489.604 469.999 504.547 468.932L525.894 464.66L542.438 460.923Z" fill="#2F2E41"/>
<path d="M453.583 494.592L452.909 506.124L489.973 494.163L490.283 505.859L446.026 536.927C446.026 536.927 433.158 518.658 431.638 512.336C430.117 506.014 430.909 496.27 430.909 496.27L453.583 494.592Z" fill="#A0616A"/>
<path d="M459.144 475.559C459.144 475.559 446.101 462.78 439.259 473.283C432.418 483.786 428.786 502.153 428.786 502.153L455.866 499.287L459.144 475.559Z" fill="#BB9331"/>
<path d="M447.372 464.082C450.403 472.247 450.647 481.419 448.054 489.733C454.23 488.511 459.397 483.866 462.215 478.234C465.033 472.601 465.709 466.09 465.188 459.813L465.172 459.624C464.355 450.194 469.731 441.299 478.553 437.878C484.504 435.57 490.032 432.168 494.724 427.837C497.372 425.393 499.934 422.127 499.363 418.568C498.838 415.287 495.852 413.037 493.014 411.312C486.535 407.373 479.379 404.223 471.817 403.665C464.255 403.106 456.225 405.439 451.116 411.045C446.008 416.651 444.583 425.753 448.858 432.018C446.965 432.126 445.246 433.654 444.916 435.522C444.586 437.39 445.677 439.414 447.419 440.165C446.246 439.813 445.14 441.19 445.273 442.407C445.406 443.624 446.314 444.596 447.203 445.437C448.47 446.636 449.887 447.913 449.338 450.04C449.118 450.892 448.598 451.64 447.921 452.203C446.279 453.566 444.14 453.814 442.086 454.034C445.734 456.233 447.962 460.592 447.608 464.839" fill="#2F2E41"/>
<path d="M498.627 502.786C504.297 497.045 505.892 489.424 502.19 485.765C498.488 482.105 490.89 483.792 485.22 489.533C479.55 495.274 477.955 502.895 481.657 506.554C485.359 510.214 492.957 508.527 498.627 502.786Z" fill="#A0616A"/>
<path d="M815.887 227.365C812.815 229.092 807.857 222.261 806.734 225.602C805.61 228.943 808.331 242.426 809.735 245.66C810.433 247.267 811.42 248.737 812.105 250.35C812.789 251.963 813.157 253.817 812.551 255.462C811.498 258.323 808.022 259.488 806.298 262.003C804.29 264.932 805.101 268.878 806.04 272.304C806.849 275.256 807.711 278.235 809.268 280.871C810.825 283.506 813.172 285.801 816.106 286.673C819.84 287.783 823.832 286.464 827.433 284.974C830.894 283.542 834.319 281.919 837.263 279.602C840.207 277.285 842.664 274.209 843.693 270.606C844.984 266.086 843.905 261.14 841.67 257.005C839.435 252.87 836.128 249.426 832.736 246.173C827.022 240.696 820.941 235.602 814.547 230.936" fill="#2F2E41"/>
<path d="M861.576 459.282L855.172 519.081C855.172 519.081 870.115 550.048 854.105 587.422L853.037 608.778L834.892 606.643L839.162 588.489L829.555 514.809L822.084 461.418L861.576 459.282Z" fill="#FFB6B6"/>
<path d="M810.343 458.214C810.343 458.214 814.612 505.199 806.073 529.759C806.073 529.759 810.343 567.133 798.602 606.643V636.058L779.389 632.27L780.456 522.284L775.12 462.486L810.343 458.214Z" fill="#FFB6B6"/>
<path d="M807.613 275.338C813.024 282.157 822.563 284.133 830.262 280.074C841.252 274.281 856.256 267.64 858.908 272.946C863.177 281.489 863.177 289.779 863.177 289.779L867.447 389.34C867.447 389.34 869.581 429.539 842.897 425.99C816.213 422.442 774.586 437.392 774.586 437.392L778.838 393.286L790.192 376.656L794.791 328.947L786.861 290.565L796.467 286.294C796.467 286.294 797.534 278.819 800.736 278.819C803.938 278.819 804.712 271.639 807.527 275.229L807.613 275.338Z" fill="#BB9331"/>
<path d="M863.711 387.738L865.846 506.84C865.846 506.84 846.633 536.739 826.353 512.179L814.612 452.875L812.477 521.789C812.477 521.789 783.659 536.739 775.12 524.993L774.586 437.392L794.332 397.348L863.711 387.738Z" fill="#2F2E41"/>
<path d="M853.666 596.195C853.666 596.195 860.509 601.304 858.374 607.711C856.24 614.117 840.229 638.678 826.353 635.474C812.478 632.271 818.882 624.796 818.882 624.796L834.892 601.304C834.892 601.304 841.296 602.371 844.499 604.507C847.701 606.643 853.666 596.195 853.666 596.195Z" fill="#2F2E41"/>
<path d="M798.602 626.931C798.602 626.931 810.343 638.678 803.939 644.017C797.534 649.356 753.772 653.627 754.84 647.22C755.907 640.813 778.322 622.66 778.322 622.66C778.322 622.66 784.726 620.524 786.861 625.864C788.995 631.203 798.602 626.931 798.602 626.931Z" fill="#2F2E41"/>
<path d="M823.561 272.171C835.872 272.171 845.852 262.187 845.852 249.871C845.852 237.554 835.872 227.57 823.561 227.57C811.25 227.57 801.27 237.554 801.27 249.871C801.27 262.187 811.25 272.171 823.561 272.171Z" fill="#FFB6B6"/>
<path d="M848.69 284.796C843.487 292.221 840.826 301.395 841.249 310.453C835.35 307.594 831.368 301.554 830.013 295.138C828.658 288.722 829.692 281.986 831.869 275.801C831.891 275.739 831.913 275.677 831.935 275.615C835.241 266.332 832.169 255.956 824.184 250.185C818.797 246.292 814.126 241.409 810.541 235.811C808.516 232.651 806.796 228.686 808.308 225.251C809.701 222.086 813.301 220.606 816.613 219.617C824.177 217.356 832.214 216.07 839.978 217.5C847.741 218.931 855.215 223.397 858.884 230.39C862.553 237.382 861.592 246.926 855.637 252.109C857.515 252.717 858.844 254.709 858.684 256.677C858.525 258.646 856.892 260.397 854.941 260.694C856.214 260.649 856.966 262.327 856.512 263.518C856.058 264.709 854.887 265.449 853.769 266.062C852.178 266.935 850.414 267.848 850.408 270.135C850.405 271.052 850.732 271.941 851.266 272.687C852.56 274.492 854.649 275.306 856.66 276.069C852.406 277.323 849.014 281.126 848.253 285.496" fill="#2F2E41"/>
<path d="M842.156 410.246C837.259 413.884 831.412 414.305 829.098 411.187C826.784 408.068 828.879 402.591 833.779 398.952C835.716 397.471 837.98 396.477 840.38 396.051L861.327 380.896L868.226 390.882L846.844 404.761C845.741 406.938 844.134 408.818 842.156 410.246Z" fill="#FFB6B6"/>
<path d="M855.353 286.828C855.353 286.828 872.25 287.362 875.452 299.108C878.654 310.854 885.058 335.891 883.991 370.653C883.991 370.653 889.328 393.077 875.452 392.009L856.24 400.552L843.431 383.467L854.105 370.653L855.353 286.828Z" fill="#BB9331"/>
<path d="M368.835 665.356L352.86 630.801L335.139 639.718L345.097 670.95L362.87 679.636L368.835 665.356Z" fill="#FFB6B6"/>
<path d="M242.755 566.483C244.178 567.125 248.507 569.71 253.828 568.838C257.46 568.242 259.899 566.307 260.706 565.703C270.713 558.205 301.2 551.789 324.031 558.822C329.202 560.415 332.346 562.194 334.831 564.864C338.355 568.65 338.937 572.491 341.743 581.998C343.277 587.199 345.217 592.273 346.797 597.46C356.049 627.827 362.119 632.105 358.697 639.576C354.901 647.866 342.796 652.716 336.995 649.604C334.619 648.33 334.265 646.238 332.162 641.511C325.996 627.651 321.246 628.124 317.054 617.697C312.16 605.522 315.955 598.211 311.793 596.402C307.933 594.723 303.928 600.688 292.393 606.408C287.114 609.026 283.714 609.879 273.265 612.727C232.578 623.817 231.492 625.225 224.261 624.696C221.097 624.465 198.642 622.824 194.515 611.305C188.057 593.281 229.934 560.702 242.755 566.483H242.755Z" fill="#2F2E41"/>
<path d="M359.117 668.44C361.254 668.265 363.753 668.061 365.235 666.08C366.238 664.74 366.626 662.786 366.11 661.158C365.516 659.28 363.928 658.498 364.088 658.26C364.332 657.897 368.193 659.441 371.955 662.486C372.665 663.061 375.865 665.708 379.247 671.018C381.958 675.272 381.246 675.68 382.997 678.2C388.375 685.936 396.584 684.251 398.766 690.492C399.608 692.9 399.308 695.789 397.912 697.717C395.109 701.587 388.393 700.88 384.738 700.449C375.936 699.41 370.304 695.714 364.25 692.346C343.659 680.892 330.165 679.893 330.316 674.234C330.344 673.163 330.822 673.424 335.007 666.974C339.137 660.607 339.759 658.677 341.376 658.623C343.809 658.542 343.893 662.865 348.812 666.078C353.171 668.926 357.733 668.553 359.117 668.44Z" fill="#2F2E41"/>
<path d="M296.665 733.532L302.842 695.966L283.173 693.388L273.883 724.825L283.714 741.997L296.665 733.532Z" fill="#FFB6B6"/>
<path d="M245.702 580.891C246.519 582.221 248.649 586.792 253.542 589.059C256.882 590.607 259.986 590.377 260.993 590.33C273.482 589.747 302.31 601.565 317.254 620.211C320.638 624.433 322.241 627.672 322.799 631.278C323.589 636.39 321.915 639.895 318.901 649.338C317.251 654.503 316.008 659.791 314.404 664.971C305.015 695.296 307.636 702.246 300.611 706.506C292.817 711.232 280.079 708.446 277.025 702.612C275.775 700.222 276.656 698.292 277.569 693.2C280.246 678.267 276.051 675.99 278.435 665.007C281.219 652.184 288.462 648.266 286.034 644.431C283.782 640.874 277.12 643.559 264.365 641.812C258.528 641.013 255.235 639.809 244.991 636.295C205.099 622.614 203.411 623.17 197.724 618.67C195.236 616.701 176.987 602.56 180.627 590.878C197.32 537.305 238.337 568.904 245.702 580.891Z" fill="#2F2E41"/>
<path d="M284.758 730.625C286.624 731.681 288.806 732.916 291.144 732.109C292.727 731.564 294.144 730.165 294.631 728.529C295.194 726.641 294.319 725.102 294.585 724.994C294.99 724.831 297.319 728.278 298.722 732.911C298.987 733.785 300.149 737.773 299.968 744.067C299.822 749.11 299.004 749.047 299.039 752.117C299.147 761.538 306.885 764.757 305.188 771.146C304.533 773.612 302.663 775.834 300.426 776.645C295.934 778.272 290.773 773.914 287.991 771.504C281.291 765.7 278.705 759.478 275.586 753.29C264.978 732.245 254.373 723.837 257.674 719.239C258.299 718.369 258.547 718.854 265.631 715.867C272.622 712.92 274.22 711.672 275.588 712.536C277.647 713.835 275.289 717.459 277.556 722.882C279.565 727.687 283.549 729.941 284.758 730.625H284.758Z" fill="#2F2E41"/>
<path d="M227.294 402.191L254.733 400.23L263.226 413.956L288.706 421.146L279.232 487.485L286.266 558.095C286.266 558.095 252.773 581.276 250.16 591.734C247.547 602.192 183.522 581.277 183.522 581.277L205.408 513.629L203.448 460.688L197.568 429.969L224.354 417.551L227.294 402.191H227.294Z" fill="#3F3D56"/>
<path d="M214.881 421.799C214.881 421.799 193.016 421.473 190.065 430.623C187.115 439.773 177.316 503.172 177.316 503.172L169.802 530.95L203.448 514.283L196.262 503.19L219.781 458.074L214.881 421.799Z" fill="#3F3D56"/>
<path d="M228.257 523.433C231.873 523.437 235.234 521.353 236.639 518.02C237.702 515.5 237.602 513.082 236.807 511.009C237.063 510.903 237.317 510.793 237.579 510.699C237.194 510.543 236.819 510.367 236.446 510.19C235.143 507.593 232.646 505.709 229.672 505.251C225.989 501.303 223.724 496.014 223.701 490.192C223.652 478.194 233.381 468.172 245.37 467.884C245.465 467.882 245.559 467.88 245.653 467.879C251.022 467.818 255.892 470.822 258.612 475.453C260.199 478.155 263.132 479.969 266.493 479.969C269.065 479.969 271.386 478.905 273.045 477.194C276.659 473.465 281.185 470.69 286.307 469.839C289.67 469.28 293.152 469.069 296.713 469.246C321.095 470.459 342.072 492.077 342.592 516.494C343.172 543.69 321.31 565.917 294.258 565.917C280.183 565.917 267.518 559.895 258.685 550.289C254.764 546.024 249.269 543.635 243.477 543.694C243.418 543.695 243.359 543.695 243.3 543.695C233.919 543.695 226.314 536.087 226.314 526.701C226.314 526.181 226.34 525.667 226.388 525.159C226.479 524.21 227.304 523.432 228.257 523.433Z" fill="#BB9331"/>
<path d="M308.631 509.054L145.957 478.335L145.303 490.1L306.671 528.662L308.631 509.054Z" fill="#BB9331"/>
<path d="M147.917 480.296L145.957 478.335C145.957 478.335 137.464 474.414 137.464 473.76C137.464 473.351 124.922 469.101 115.539 465.979C110.299 464.235 104.765 467.686 104.019 473.16L102.843 481.787C102.14 486.945 106.03 491.587 111.229 491.795L134.197 492.715L145.303 490.1L147.917 480.296Z" fill="#BB9331"/>
<path d="M308.305 512.649L308.693 511.021L145.914 479.888L145.63 481.93L308.305 512.649Z" fill="#3F3D56"/>
<path d="M307.932 515.741L308.305 513.956L145.737 483.11L145.63 485.198L307.932 515.741Z" fill="#3F3D56"/>
<path d="M307.559 519.446L307.651 516.571L145.609 485.457L145.63 487.159L307.559 519.446Z" fill="#3F3D56"/>
<path d="M307.125 523.749L306.998 521.146L145.373 487.802L145.234 488.441L307.125 523.749Z" fill="#3F3D56"/>
<path d="M307.122 526.359L306.998 524.414L145.616 488.881L145.471 489.518L307.122 526.359Z" fill="#3F3D56"/>
<path d="M213.646 417.632L221.741 413.148L225.252 484.871L224.027 493.695C224.027 493.695 203.592 437.321 213.646 417.632H213.646Z" fill="#3F3D56"/>
<path d="M243.475 395.329C254.66 395.329 263.728 386.257 263.728 375.067C263.728 363.877 254.66 354.806 243.475 354.806C232.29 354.806 223.222 363.877 223.222 375.067C223.222 386.257 232.29 395.329 243.475 395.329Z" fill="#FFB6B6"/>
<path d="M224.027 387.159L228.869 391.026L223.374 370.165C223.374 370.165 238.727 369.838 240.034 361.342C240.034 361.342 252.12 361.015 255.386 361.015C258.653 361.015 260.127 382.639 260.127 382.639C260.127 382.639 266.493 364.936 259.96 355.786C253.426 346.636 255.713 352.191 254.406 348.923C253.1 345.655 239.707 342.65 231.214 345.982C222.721 349.314 222.394 354.065 219.781 354.108C217.168 354.152 208.021 367.224 216.514 377.682C225.007 388.139 224.027 387.159 224.027 387.159V387.159Z" fill="#2F2E41"/>
<path d="M288.035 520.119C290.436 518.203 292.205 515.903 293.202 513.63L317.222 496.821L308.893 485.62L285.423 503.877C282.986 504.345 280.352 505.56 277.952 507.476C272.468 511.854 270.28 518.232 273.064 521.724C275.849 525.215 282.551 524.497 288.035 520.119Z" fill="#FFB6B6"/>
<path d="M196.009 494.55C194.227 497.053 193.159 499.75 192.825 502.21L174.352 524.98L185.439 533.458L202.985 509.447C205.199 508.327 207.398 506.434 209.179 503.931C213.248 498.214 213.599 491.478 209.962 488.888C206.325 486.297 200.078 488.832 196.009 494.55L196.009 494.55Z" fill="#FFB6B6"/>
<path d="M278.252 425.394C278.252 425.394 284.132 415.59 290.012 421.472C294.665 426.127 320.18 455.746 330.628 467.906C333.509 471.26 335.091 475.533 335.091 479.954C335.091 486.794 331.316 493.075 325.278 496.283L292.625 513.629L283.479 499.904L311.571 479.642L268.453 456.113L278.252 425.394H278.252Z" fill="#3F3D56"/>
<path d="M175.003 515.741L169.802 530.95L184.829 538.793L196.262 530.95L203.448 514.283L182.215 508.074" fill="#3F3D56"/>
<path d="M753.637 276.169C753.029 269.784 755.829 264.295 759.89 263.908C763.952 263.522 767.736 268.384 768.344 274.771C768.622 277.319 768.286 279.897 767.363 282.288L769.599 309.373L756.872 310.152L756.019 283.368C754.662 281.193 753.845 278.725 753.637 276.169L753.637 276.169Z" fill="#FFB6B6"/>
<path d="M822.977 289.018C822.977 289.018 802.184 276.782 797.903 278.617C793.623 280.453 772.83 311.656 772.83 311.656L770.918 305.961L756.317 307.373C756.317 307.373 747.756 347.141 766.714 343.471C785.672 339.8 816.862 305.538 816.862 305.538L822.977 289.018Z" fill="#BB9331"/>
<path d="M723.643 293.485L752.39 286.798L754.451 292.773L768.358 289.015L777.53 286.535L786.439 269.222L780.118 250.893L761.296 250.717L755.541 251.849L739.487 255.008C738.127 257.257 738.87 260.184 741.136 261.513L741.88 261.949L719.293 265.862C719.293 265.862 712.078 278.707 723.643 293.484V293.485Z" fill="#3F3D56"/>
<path d="M755.541 251.849L768.358 289.015L777.53 286.535L786.439 269.222L780.118 250.893L761.296 250.717L755.541 251.849Z" fill="#2F2E41"/>
<path d="M750.678 253.398C752.657 252.96 754.083 251.802 753.864 250.813C753.645 249.823 751.864 249.376 749.885 249.814C747.907 250.252 746.48 251.41 746.699 252.4C746.918 253.389 748.7 253.836 750.678 253.398Z" fill="#3F3D56"/>
</g>
<defs>
<clipPath id="clip0_32_360">
<rect width="885" height="777" fill="white"/>
</clipPath>
</defs>
</svg>
