<svg width="231" height="213" viewBox="0 0 231 213" fill="none" xmlns="http://www.w3.org/2000/svg">
<g clip-path="url(#clip0_10_160)">
<path d="M210.452 170.647L191.7 142.855C191.7 142.855 220.098 152.747 216.875 170.647H210.452Z" fill="#E5E5E5"/>
<path d="M16.0747 170.831L15.3629 170.817C15.6382 162.92 16.4827 155.052 17.8898 147.276C20.9681 130.626 26.0867 119.692 33.1035 114.776L33.5123 115.357C17.121 126.841 16.0831 170.392 16.0747 170.831Z" fill="#E5E5E5"/>
<path d="M24.973 170.661L24.2612 170.647C24.2765 169.861 24.7214 151.323 32.0357 146.199L32.4445 146.78C25.4253 151.697 24.9765 170.472 24.973 170.661Z" fill="#E5E5E5"/>
<path d="M37.5621 115.422C39.5278 115.422 41.1214 113.832 41.1214 111.871C41.1214 109.909 39.5278 108.319 37.5621 108.319C35.5963 108.319 34.0027 109.909 34.0027 111.871C34.0027 113.832 35.5963 115.422 37.5621 115.422Z" fill="#2A9D8F"/>
<path d="M35.7994 145.964C37.7652 145.964 39.3588 144.374 39.3588 142.413C39.3588 140.451 37.7652 138.861 35.7994 138.861C33.8337 138.861 32.2401 140.451 32.2401 142.413C32.2401 144.374 33.8337 145.964 35.7994 145.964Z" fill="#2A9D8F"/>
<path d="M23.314 117.551C23.9829 121.814 22.2394 125.627 22.2394 125.627C22.2394 125.627 19.4115 122.528 18.7425 118.265C18.0736 114.002 19.8171 110.189 19.8171 110.189C19.8171 110.189 22.645 113.288 23.314 117.551Z" fill="#E5E5E5"/>
<path d="M34.9484 127.905C30.8576 129.305 26.7908 128.256 26.7908 128.256C26.7908 128.256 29.3564 124.938 33.4471 123.537C37.5378 122.137 41.6046 123.186 41.6046 123.186C41.6046 123.186 39.0391 126.505 34.9484 127.905Z" fill="#E5E5E5"/>
<path d="M35.0798 154.953C33.2284 155.533 31.2567 155.618 29.362 155.199C30.565 153.671 32.1853 152.522 34.0275 151.892C35.8698 151.261 37.8554 151.176 39.7453 151.645C38.5072 153.136 36.8984 154.277 35.0798 154.953Z" fill="#E5E5E5"/>
<path d="M230.644 171.647H0.355932C0.261533 171.647 0.171006 171.594 0.104255 171.5C0.0375051 171.407 0 171.279 0 171.147C0 171.014 0.0375051 170.887 0.104255 170.793C0.171006 170.699 0.261533 170.647 0.355932 170.647H230.644C230.738 170.647 230.829 170.699 230.896 170.793C230.962 170.887 231 171.014 231 171.147C231 171.279 230.962 171.407 230.896 171.5C230.829 171.594 230.738 171.647 230.644 171.647Z" fill="#CBCBCB"/>
<path d="M145.858 187.729L142.946 195.291L112.328 187.683L116.625 176.522L145.858 187.729Z" fill="#FFB7B7"/>
<path d="M153.947 188.617L144.558 213L144.249 212.882C141.726 211.914 139.692 209.987 138.594 207.523C137.495 205.06 137.422 202.262 138.391 199.745L138.392 199.744L144.126 184.851L153.947 188.617Z" fill="#2F2E41"/>
<path d="M99.3317 93.0445L85.9885 94.291L85.3265 133.905C85.5034 135.846 86.4352 137.641 87.9223 138.905C89.4094 140.17 91.3336 140.802 93.2827 140.668L101.743 140.087L99.3317 93.0445Z" fill="#E5E5E5"/>
<path d="M146.373 91.0948L137.243 90.9775L136.702 138.047C138.719 138.114 140.729 137.765 142.606 137.023C144.482 136.281 146.186 135.161 147.609 133.733C149.033 132.305 150.146 130.6 150.88 128.723C151.614 126.847 151.952 124.84 151.874 122.827L146.373 91.0948Z" fill="#E5E5E5"/>
<path d="M93.3969 154.768C93.1806 156.133 92.8668 157.481 92.4577 158.802C91.997 160.095 91.2857 161.29 90.8645 162.596C89.5218 166.759 91.3832 171.4 94.3561 174.613C96.9343 177.388 100.262 179.36 103.938 180.29C106.62 180.963 109.409 181.06 112.173 181.154C119.826 181.413 127.677 181.645 134.929 179.19C137.22 178.396 139.433 177.393 141.54 176.194C142.206 175.877 142.792 175.417 143.256 174.846C143.809 174.06 143.88 173.041 143.875 172.081C143.859 168.844 143.201 165.623 143.357 162.389C143.443 160.598 143.779 158.808 143.614 157.023C143.385 154.995 142.534 153.087 141.176 151.561C139.819 150.034 138.022 148.963 136.031 148.495C133.974 148.054 131.84 148.294 129.746 148.495C124.309 149.017 118.849 149.26 113.387 149.225C107.807 149.19 102.261 148.34 96.7079 148.251C95.0658 148.225 95.099 148.73 94.5762 150.315C94.0947 151.775 93.7009 153.262 93.3969 154.768Z" fill="#2F2E41"/>
<path d="M71.5751 152.137C70.0745 151.761 68.5283 151.597 66.9819 151.65C65.3572 151.739 63.7701 152.173 62.3264 152.922C60.8826 153.671 59.6152 154.718 58.6084 155.994C57.6016 157.269 56.8785 158.744 56.4872 160.32C56.0959 161.896 56.0453 163.537 56.3388 165.134C56.7135 166.864 57.326 168.534 58.1589 170.097C59.377 172.563 60.838 175.024 63.093 176.605C64.4122 177.529 65.9389 178.106 67.4476 178.673L79.3246 183.137C81.0718 183.794 82.8193 184.451 84.5838 185.06C93.4487 188.117 102.691 189.95 112.054 190.509C114.906 190.678 117.801 190.725 120.583 190.077C121.243 189.924 121.947 189.695 122.33 189.136C122.556 188.742 122.689 188.302 122.72 187.85L123.451 182.745C123.554 182.026 123.653 181.269 123.389 180.593C123.054 179.735 122.215 179.195 121.414 178.736C113.606 174.262 104.489 171.793 97.9166 165.651C96.3694 164.206 95.0746 161.914 93.1947 160.932C91.063 159.818 88.5524 159.182 86.349 158.156C81.5319 155.913 76.7958 153.334 71.5751 152.137Z" fill="#2F2E41"/>
<path opacity="0.1" d="M83.4325 159.019C87.6306 160.332 105.355 169.425 108.393 172.6C107.985 172.746 94.1692 165.021 93.7546 164.897C89.9861 163.768 86.1967 162.632 82.618 160.981C81.8981 160.648 77.9409 159.087 78.1201 158.18C78.3223 157.158 82.6873 158.786 83.4325 159.019Z" fill="black"/>
<path d="M108.768 79.7301L97.4652 88.2932C97.4652 88.2932 85.5384 88.6655 85.9414 96.2727C86.3444 103.88 91.1178 139.898 91.1178 139.898L92.1534 152.29L111.798 157.876C122.413 160.893 133.627 161.133 144.361 158.572L142.027 146.139C142.027 146.139 151.48 89.6742 145.785 87.1882C140.09 84.7022 136.531 85.4125 136.531 85.4125L129.393 79.1974L108.768 79.7301Z" fill="#E5E5E5"/>
<path d="M142.226 65.8986C142.226 77.015 131.924 75.3336 119.216 75.3336C106.508 75.3336 96.2068 77.015 96.2068 65.8986C96.2068 54.7823 101.239 35.0777 119.216 35.0777C137.813 35.0777 142.226 54.7823 142.226 65.8986Z" fill="#2F2E41"/>
<path d="M131.177 69.6658C137.224 63.6327 137.224 53.851 131.177 47.8179C125.131 41.7847 115.327 41.7847 109.281 47.8179C103.234 53.851 103.234 63.6327 109.281 69.6659C115.327 75.699 125.131 75.699 131.177 69.6658Z" fill="#FFB7B7"/>
<path d="M101.25 58.3506H107.374L110.076 50.8026L110.616 58.3506H113.543L115.119 53.9476L115.434 58.3506H137.183C137.183 54.0132 135.456 49.8536 132.382 46.7866C129.308 43.7196 125.139 41.9966 120.792 41.9966H117.64C113.293 41.9966 109.124 43.7196 106.051 46.7866C102.977 49.8536 101.25 54.0132 101.25 58.3506Z" fill="#2F2E41"/>
<path d="M134.751 81.5058H103.785V118.796H134.751V81.5058Z" fill="#2A9D8F"/>
<path d="M105.492 187.374L108.404 194.936L139.022 187.328L134.725 176.167L105.492 187.374Z" fill="#FFB7B7"/>
<path d="M107.223 184.496L112.958 199.389L112.958 199.389C113.927 201.907 113.855 204.705 112.756 207.168C111.658 209.632 109.623 211.559 107.101 212.526L106.792 212.645L97.4024 188.261L107.223 184.496Z" fill="#2F2E41"/>
<path d="M166.695 149.242C169.155 148.627 171.705 148.453 174.226 148.729C176.239 148.95 178.313 149.509 179.783 150.9C181.572 152.592 182.147 155.209 182.195 157.668C182.274 162.566 180.645 167.34 177.588 171.173C176.842 172.143 175.954 172.995 174.955 173.703C173.877 174.376 172.728 174.928 171.528 175.35L144.93 185.818C137.933 188.572 130.911 191.334 123.612 193.149C123.216 193.34 122.759 193.366 122.343 193.222C121.927 193.077 121.585 192.773 121.394 192.377C121.388 192.365 121.382 192.353 121.377 192.341C119.046 189.019 117.091 185.451 115.547 181.7C115.474 181.611 115.424 181.506 115.4 181.393C115.376 181.28 115.38 181.164 115.411 181.053C115.442 180.942 115.5 180.84 115.579 180.756C115.658 180.672 115.756 180.608 115.865 180.57L134.678 169.785C136.025 169.012 137.388 168.228 138.507 167.152C139.32 166.366 139.986 165.441 140.473 164.421C140.863 163.609 140.899 161.691 141.397 161.09C141.885 160.502 143.553 160.455 144.324 160.224C145.41 159.891 146.475 159.49 147.51 159.022C151.718 157.143 155.466 154.414 159.5 152.214C161.762 150.924 164.18 149.925 166.695 149.242Z" fill="#2F2E41"/>
<path opacity="0.1" d="M156.03 157.297C152.798 159.719 148.613 161.946 145.41 164.432C144.316 165.28 126.091 175.504 125.833 176.862C128.822 177.364 147.859 164.075 150.583 162.749C153.307 161.423 155.722 159.553 158.114 157.697C158.724 157.224 161.308 155.802 159.558 155.274C158.572 154.976 156.758 156.813 156.03 157.297Z" fill="black"/>
<path d="M214.124 63.8246C220.267 63.8246 225.246 58.8561 225.246 52.7271C225.246 46.5981 220.267 41.6296 214.124 41.6296C207.982 41.6296 203.002 46.5981 203.002 52.7271C203.002 58.8561 207.982 63.8246 214.124 63.8246Z" fill="#F1F1F1"/>
<path d="M193.54 65.8122C197.849 65.8122 201.342 62.3268 201.342 58.0274C201.342 53.728 197.849 50.2426 193.54 50.2426C189.231 50.2426 185.738 53.728 185.738 58.0274C185.738 62.3268 189.231 65.8122 193.54 65.8122Z" fill="#F1F1F1"/>
<path d="M50.6183 60.7339C54.0733 60.7339 56.8742 57.9393 56.8742 54.4919C56.8742 51.0446 54.0733 48.2499 50.6183 48.2499C47.1633 48.2499 44.3624 51.0446 44.3624 54.4919C44.3624 57.9393 47.1633 60.7339 50.6183 60.7339Z" fill="#F1F1F1"/>
<path d="M60.918 64.9313C63.3416 64.9313 65.3064 62.9709 65.3064 60.5526C65.3064 58.1343 63.3416 56.1739 60.918 56.1739C58.4943 56.1739 56.5295 58.1343 56.5295 60.5526C56.5295 62.9709 58.4943 64.9313 60.918 64.9313Z" fill="#F1F1F1"/>
<path d="M121.606 9.54288C124.247 9.54288 126.388 7.40663 126.388 4.77144C126.388 2.13625 124.247 0 121.606 0C118.964 0 116.823 2.13625 116.823 4.77144C116.823 7.40663 118.964 9.54288 121.606 9.54288Z" fill="#F1F1F1"/>
<path opacity="0.17" d="M93.1071 105.3L93.5345 102.008C93.5345 102.008 109.48 103.17 106.988 107.076C104.497 110.983 98.4461 111.338 98.4461 111.338L93.1071 105.3Z" fill="#2F2E41"/>
<path d="M105.143 90.9856C106.057 91.0859 106.936 91.3868 107.72 91.8665C108.503 92.3463 109.17 92.993 109.672 93.7604C110.131 94.4606 110.442 95.2461 110.589 96.0695C110.735 96.8929 110.713 97.7374 110.524 98.5522C110.335 99.3669 109.983 100.135 109.489 100.811C108.995 101.486 108.37 102.055 107.65 102.484C107.386 102.639 107.11 102.774 106.826 102.888L97.0245 132.801C96.7405 133.391 96.3424 133.919 95.8531 134.356C95.3637 134.792 94.7928 135.127 94.1731 135.342C93.5534 135.558 92.8972 135.649 92.2421 135.61C91.5871 135.572 90.9461 135.404 90.3562 135.118C89.7662 134.831 89.2388 134.431 88.8043 133.94C88.3698 133.45 88.0368 132.878 87.8244 132.259C87.612 131.639 87.5245 130.984 87.5667 130.331C87.609 129.677 87.7803 129.039 88.0707 128.451L98.4939 98.8707C98.2099 97.892 98.1722 96.8585 98.3839 95.8618C98.5957 94.865 99.0504 93.9357 99.7078 93.1561C100.365 92.3765 101.205 91.7705 102.153 91.392C103.101 91.0134 104.128 90.8738 105.143 90.9856Z" fill="#FFB7B7"/>
<path d="M93.2534 102.289C93.2534 102.289 98.8693 111.862 106.988 107.076L99.12 137.121H92.4905L85.6325 135.843L87.5527 123.43L93.2534 102.289Z" fill="#E5E5E5"/>
<path d="M133.353 108.832L128.7 102.459C128.7 102.459 130.936 95.8491 139.606 98.2664C139.606 98.2664 145.124 110.588 133.353 108.832Z" fill="#E5E5E5"/>
<path opacity="0.17" d="M133.353 108.832L128.7 102.459C128.7 102.459 130.936 95.8491 139.606 98.2664C139.606 98.2664 145.124 110.588 133.353 108.832Z" fill="#2F2E41"/>
<path d="M134.584 86.5663C135.927 87.1888 137 88.2714 137.61 89.6171C138.22 90.9628 138.325 92.4821 137.907 93.8988L148.33 123.48C148.62 124.067 148.792 124.705 148.834 125.359C148.876 126.012 148.789 126.667 148.576 127.287C148.364 127.906 148.031 128.478 147.597 128.969C147.162 129.459 146.635 129.859 146.045 130.146C145.455 130.433 144.814 130.6 144.159 130.639C143.503 130.677 142.847 130.586 142.228 130.371C141.608 130.155 141.037 129.82 140.548 129.384C140.058 128.948 139.66 128.419 139.376 127.829L129.575 97.916C129.29 97.8025 129.015 97.6673 128.751 97.5118C128.031 97.0835 127.405 96.5145 126.911 95.8388C126.417 95.1632 126.065 94.395 125.876 93.5802C125.687 92.7654 125.666 91.921 125.812 91.0975C125.958 90.2741 126.27 89.4887 126.728 88.7884C127.231 88.0211 127.898 87.3743 128.681 86.8945C129.464 86.4148 130.344 86.114 131.257 86.0136C132.396 85.8848 133.549 86.0763 134.584 86.5663Z" fill="#FFB7B7"/>
<path d="M128.7 102.459C128.7 102.459 136.376 107.107 139.606 98.2664L150.423 126.683L147.209 132.291L146.744 132.33C144.827 132.489 142.899 132.182 141.127 131.435C139.355 130.687 137.791 129.521 136.57 128.038C134.079 125.012 132.384 121.414 131.637 117.57L128.7 102.459Z" fill="#E5E5E5"/>
<g filter="url(#filter0_f_10_160)">
<path d="M145.858 200.729L142.946 208.291L112.328 200.683L116.625 189.522L145.858 200.729Z" fill="black" fill-opacity="0.05"/>
<path d="M153.947 201.617L144.558 226L144.249 225.882C141.726 224.914 139.692 222.987 138.594 220.523C137.495 218.06 137.422 215.262 138.391 212.745L138.392 212.744L144.126 197.851L153.947 201.617Z" fill="black" fill-opacity="0.05"/>
<path d="M71.5751 165.137C70.0745 164.761 68.5283 164.597 66.9819 164.65C65.3572 164.739 63.7701 165.173 62.3264 165.922C60.8826 166.671 59.6152 167.718 58.6084 168.994C57.6016 170.269 56.8785 171.744 56.4872 173.32C56.0959 174.896 56.0453 176.537 56.3388 178.134C56.7135 179.864 57.326 181.534 58.1589 183.097C59.377 185.563 60.838 188.024 63.093 189.605C64.4122 190.529 65.9389 191.106 67.4476 191.673L79.3246 196.137C81.0718 196.794 82.8193 197.451 84.5838 198.06C93.4487 201.117 102.691 202.95 112.054 203.509C114.906 203.678 117.801 203.725 120.583 203.077C121.243 202.924 121.947 202.695 122.33 202.136C122.556 201.742 122.689 201.302 122.72 200.85L123.451 195.745C123.554 195.026 123.653 194.269 123.389 193.593C123.054 192.735 122.215 192.195 121.414 191.736C113.606 187.262 104.489 184.793 97.9166 178.651C96.3694 177.206 95.0746 174.914 93.1947 173.932C91.063 172.818 88.5524 172.182 86.349 171.156C81.5319 168.913 76.7958 166.334 71.5751 165.137Z" fill="black" fill-opacity="0.05"/>
<path d="M105.492 200.374L108.404 207.936L139.022 200.328L134.725 189.167L105.492 200.374Z" fill="black" fill-opacity="0.05"/>
<path d="M107.223 197.496L112.958 212.389L112.958 212.389C113.927 214.907 113.855 217.705 112.756 220.168C111.658 222.632 109.623 224.559 107.101 225.526L106.792 225.645L97.4024 201.261L107.223 197.496Z" fill="black" fill-opacity="0.05"/>
<path d="M166.695 162.242C169.155 161.627 171.705 161.453 174.226 161.729C176.239 161.95 178.313 162.509 179.783 163.9C181.572 165.592 182.147 168.209 182.195 170.668C182.274 175.566 180.645 180.34 177.588 184.173C176.842 185.143 175.954 185.995 174.955 186.703C173.877 187.376 172.728 187.928 171.528 188.35L144.93 198.818C137.933 201.572 130.911 204.334 123.612 206.149C123.216 206.34 122.759 206.366 122.343 206.222C121.927 206.077 121.585 205.773 121.394 205.377C121.388 205.365 121.382 205.353 121.377 205.341C119.046 202.019 117.091 198.451 115.547 194.7C115.474 194.611 115.424 194.506 115.4 194.393C115.376 194.28 115.38 194.164 115.411 194.053C115.442 193.942 115.5 193.84 115.579 193.756C115.658 193.672 115.756 193.608 115.865 193.57L134.678 182.785C136.025 182.012 137.388 181.228 138.507 180.152C139.32 179.366 139.986 178.441 140.473 177.421C140.863 176.609 140.899 174.691 141.397 174.09C141.885 173.502 143.553 173.455 144.324 173.224C145.41 172.891 146.475 172.49 147.51 172.022C151.718 170.143 155.466 167.414 159.5 165.214C161.762 163.924 164.18 162.925 166.695 162.242Z" fill="black" fill-opacity="0.05"/>
</g>
</g>
<defs>
<filter id="filter0_f_10_160" x="40.1508" y="145.602" width="158.047" height="96.3981" filterUnits="userSpaceOnUse" color-interpolation-filters="sRGB">
<feFlood flood-opacity="0" result="BackgroundImageFix"/>
<feBlend mode="normal" in="SourceGraphic" in2="BackgroundImageFix" result="shape"/>
<feGaussianBlur stdDeviation="8" result="effect1_foregroundBlur_10_160"/>
</filter>
<clipPath id="clip0_10_160">
<rect width="231" height="213" fill="white"/>
</clipPath>
</defs>
</svg>
